G04 Layer_Physical_Order=1*
G04 Layer_Color=255*
%FSLAX25Y25*%
%MOIN*%
G70*
G01*
G75*
%ADD10O,0.03543X0.00984*%
%ADD11R,0.03740X0.00984*%
%ADD12O,0.00984X0.03543*%
%ADD13R,0.00984X0.03740*%
%ADD14R,0.19095X0.19095*%
%ADD15R,0.05906X0.05906*%
%ADD16R,0.06299X0.05500*%
%ADD17R,0.01500X0.06000*%
%ADD18R,0.05118X0.04528*%
%ADD19R,0.06142X0.01102*%
%ADD20R,0.01102X0.06142*%
%ADD21R,0.03500X0.03000*%
%ADD22R,0.03543X0.02756*%
%ADD23R,0.03937X0.03150*%
%ADD24R,0.01969X0.01969*%
%ADD25R,0.01969X0.01969*%
%ADD26C,0.00600*%
%ADD27C,0.01000*%
%ADD28C,0.00800*%
%ADD29C,0.02500*%
%ADD30R,0.03000X0.08000*%
%ADD31C,0.06000*%
%ADD32C,0.02362*%
G36*
X64311Y-41398D02*
X-4312D01*
Y173878D01*
X64311D01*
Y-41398D01*
D02*
G37*
%LPC*%
G36*
X37481Y170324D02*
X34437D01*
Y167280D01*
X37481D01*
Y170324D01*
D02*
G37*
G36*
X29607D02*
X26563D01*
Y167280D01*
X29607D01*
Y170324D01*
D02*
G37*
G36*
X33437D02*
X30393D01*
Y167280D01*
X33437D01*
Y170324D01*
D02*
G37*
G36*
X25563D02*
X22520D01*
Y167280D01*
X25563D01*
Y170324D01*
D02*
G37*
G36*
X44591Y170091D02*
X43000D01*
Y166000D01*
X44591D01*
Y170091D01*
D02*
G37*
G36*
X19590D02*
X18000D01*
Y166000D01*
X19590D01*
Y170091D01*
D02*
G37*
G36*
X42000D02*
X40409D01*
Y166000D01*
X42000D01*
Y170091D01*
D02*
G37*
G36*
X17000D02*
X15409D01*
Y166000D01*
X17000D01*
Y170091D01*
D02*
G37*
G36*
X55303Y170651D02*
X50603D01*
Y166451D01*
X53718D01*
X53984Y166398D01*
X53984Y166398D01*
X57667D01*
Y165788D01*
X60836D01*
Y168957D01*
X57667D01*
Y168641D01*
X55303D01*
Y170651D01*
D02*
G37*
G36*
X37481Y166280D02*
X34437D01*
Y163236D01*
X37481D01*
Y166280D01*
D02*
G37*
G36*
X33437D02*
X30393D01*
Y163236D01*
X33437D01*
Y166280D01*
D02*
G37*
G36*
X29607D02*
X26563D01*
Y163236D01*
X29607D01*
Y166280D01*
D02*
G37*
G36*
X25563D02*
X22520D01*
Y163236D01*
X25563D01*
Y166280D01*
D02*
G37*
G36*
X44591Y165000D02*
X43000D01*
Y160909D01*
X44591D01*
Y165000D01*
D02*
G37*
G36*
X42000D02*
X40409D01*
Y160909D01*
X42000D01*
Y165000D01*
D02*
G37*
G36*
X19590D02*
X18000D01*
Y160909D01*
X19590D01*
Y165000D01*
D02*
G37*
G36*
X17000D02*
X15409D01*
Y160909D01*
X17000D01*
Y165000D01*
D02*
G37*
G36*
X47126Y158022D02*
X43886D01*
Y155181D01*
X47126D01*
Y158022D01*
D02*
G37*
G36*
X16114D02*
X12874D01*
Y155181D01*
X16114D01*
Y158022D01*
D02*
G37*
G36*
X47126Y154181D02*
X43886D01*
Y151340D01*
X47126D01*
Y154181D01*
D02*
G37*
G36*
X60836Y165315D02*
X57667D01*
Y162146D01*
X58130D01*
Y153395D01*
X50207Y145472D01*
X49964Y145108D01*
X49878Y144679D01*
X49878Y144679D01*
Y142512D01*
X48735Y141369D01*
X48372Y141519D01*
Y144931D01*
X47122D01*
Y146126D01*
X50825Y149830D01*
X51181Y149759D01*
X51876Y149897D01*
X52465Y150291D01*
X52859Y150880D01*
X52997Y151575D01*
X52859Y152270D01*
X52465Y152859D01*
X51876Y153253D01*
X51181Y153391D01*
X50486Y153253D01*
X49897Y152859D01*
X49503Y152270D01*
X49365Y151575D01*
X49371Y151547D01*
X45207Y147384D01*
X44964Y147020D01*
X44878Y146591D01*
X44879Y146590D01*
Y144931D01*
X43628D01*
Y142262D01*
X42714Y141347D01*
X42350Y141498D01*
Y145100D01*
X39439D01*
X36240Y148299D01*
Y150384D01*
X36468D01*
Y153800D01*
X36862Y154010D01*
X37152Y153816D01*
X37874Y153673D01*
X38596Y153816D01*
X39208Y154225D01*
X39252Y154292D01*
X39646Y154172D01*
Y151340D01*
X42886D01*
Y154681D01*
Y158022D01*
X39646D01*
Y156946D01*
X39252Y156826D01*
X39208Y156893D01*
X38596Y157302D01*
X37874Y157445D01*
X37152Y157302D01*
X36862Y157108D01*
X36468Y157318D01*
Y157584D01*
X28650D01*
Y157574D01*
X27941D01*
Y153984D01*
Y150393D01*
X28184D01*
X28425Y150000D01*
X28415Y149981D01*
X28318Y149918D01*
X14551D01*
X14200Y149848D01*
X13902Y149649D01*
X1713Y137460D01*
X1514Y137162D01*
X1445Y136811D01*
Y125000D01*
X1514Y124649D01*
X1713Y124351D01*
X5082Y120982D01*
Y103772D01*
X4689Y103609D01*
X1827Y106471D01*
X1922Y106933D01*
X2552Y107417D01*
X3129Y108169D01*
X3492Y109045D01*
X3615Y109984D01*
X3492Y110924D01*
X3129Y111800D01*
X2552Y112552D01*
X1800Y113129D01*
X924Y113492D01*
X-16Y113615D01*
X-955Y113492D01*
X-1831Y113129D01*
X-2583Y112552D01*
X-3160Y111800D01*
X-3523Y110924D01*
X-3647Y109984D01*
X-3523Y109045D01*
X-3160Y108169D01*
X-2583Y107417D01*
X-1831Y106840D01*
X-955Y106477D01*
X-711Y106445D01*
X-649Y106351D01*
X5082Y100620D01*
Y96730D01*
X4719Y96579D01*
X3129Y98169D01*
X3492Y99045D01*
X3615Y99984D01*
X3492Y100924D01*
X3129Y101800D01*
X2552Y102552D01*
X1800Y103129D01*
X924Y103492D01*
X-16Y103615D01*
X-955Y103492D01*
X-1831Y103129D01*
X-2583Y102552D01*
X-3160Y101800D01*
X-3523Y100924D01*
X-3647Y99984D01*
X-3523Y99045D01*
X-3160Y98169D01*
X-2583Y97417D01*
X-1831Y96840D01*
X-955Y96477D01*
X-16Y96353D01*
X924Y96477D01*
X1800Y96840D01*
X1835Y96867D01*
X3582Y95120D01*
Y91734D01*
X3189Y91655D01*
X3129Y91800D01*
X2552Y92552D01*
X1800Y93129D01*
X924Y93492D01*
X-16Y93615D01*
X-955Y93492D01*
X-1831Y93129D01*
X-2583Y92552D01*
X-3160Y91800D01*
X-3523Y90924D01*
X-3647Y89984D01*
X-3523Y89044D01*
X-3160Y88169D01*
X-2583Y87417D01*
X-1831Y86840D01*
X-955Y86477D01*
X-918Y86472D01*
Y86000D01*
X-848Y85649D01*
X-649Y85351D01*
X797Y83905D01*
X613Y83533D01*
X-16Y83615D01*
X-955Y83492D01*
X-1831Y83129D01*
X-2583Y82552D01*
X-3160Y81800D01*
X-3523Y80924D01*
X-3647Y79984D01*
X-3523Y79045D01*
X-3160Y78169D01*
X-2583Y77417D01*
X-1831Y76840D01*
X-955Y76477D01*
X-912Y76471D01*
X-848Y76149D01*
X-649Y75851D01*
X1539Y73663D01*
X1316Y73329D01*
X924Y73492D01*
X-16Y73615D01*
X-955Y73492D01*
X-1831Y73129D01*
X-2583Y72552D01*
X-3160Y71800D01*
X-3523Y70924D01*
X-3647Y69984D01*
X-3523Y69045D01*
X-3160Y68169D01*
X-2583Y67417D01*
X-1831Y66840D01*
X-955Y66477D01*
X-763Y66452D01*
X-649Y66280D01*
X2665Y62966D01*
X2683Y62938D01*
X2427Y62647D01*
X2371Y62690D01*
X1800Y63129D01*
X924Y63492D01*
X-16Y63615D01*
X-955Y63492D01*
X-1831Y63129D01*
X-2583Y62552D01*
X-3160Y61800D01*
X-3523Y60924D01*
X-3647Y59984D01*
X-3523Y59044D01*
X-3160Y58169D01*
X-2583Y57417D01*
X-1831Y56840D01*
X-955Y56477D01*
X-16Y56353D01*
X369Y56404D01*
X7422Y49351D01*
X7720Y49152D01*
X8071Y49082D01*
X9671D01*
X10669Y48084D01*
X10475Y47721D01*
X10000Y47816D01*
X9305Y47678D01*
X8716Y47284D01*
X8322Y46695D01*
X8184Y46000D01*
X8322Y45305D01*
X8716Y44716D01*
X9305Y44322D01*
X10000Y44184D01*
X10432Y44270D01*
X11653Y43049D01*
X11506Y42639D01*
X11389Y42628D01*
X11284Y42784D01*
X10695Y43178D01*
X10000Y43316D01*
X9305Y43178D01*
X8716Y42784D01*
X8322Y42195D01*
X8184Y41500D01*
X8266Y41089D01*
X7903Y40895D01*
X7418Y41380D01*
Y44163D01*
X7348Y44514D01*
X7149Y44812D01*
X5712Y46249D01*
X5414Y46448D01*
X5063Y46518D01*
X2880D01*
X2440Y46958D01*
X2466Y47351D01*
X2552Y47417D01*
X3129Y48169D01*
X3492Y49044D01*
X3615Y49984D01*
X3492Y50924D01*
X3129Y51800D01*
X2552Y52552D01*
X1800Y53129D01*
X924Y53492D01*
X-16Y53615D01*
X-955Y53492D01*
X-1831Y53129D01*
X-2583Y52552D01*
X-3160Y51800D01*
X-3523Y50924D01*
X-3647Y49984D01*
X-3523Y49044D01*
X-3160Y48169D01*
X-2583Y47417D01*
X-1831Y46840D01*
X-955Y46477D01*
X-16Y46353D01*
X395Y46407D01*
X1749Y45054D01*
X1813Y44800D01*
X1749Y44546D01*
X721Y43518D01*
X-16Y43615D01*
X-955Y43492D01*
X-1831Y43129D01*
X-2583Y42552D01*
X-3160Y41800D01*
X-3523Y40924D01*
X-3647Y39984D01*
X-3523Y39044D01*
X-3160Y38169D01*
X-2583Y37417D01*
X-1831Y36840D01*
X-955Y36477D01*
X-16Y36353D01*
X924Y36477D01*
X1800Y36840D01*
X2552Y37417D01*
X3129Y38169D01*
X3492Y39044D01*
X3615Y39984D01*
X3492Y40924D01*
X3129Y41800D01*
X2552Y42552D01*
X2539Y42742D01*
X2880Y43082D01*
X3982D01*
Y40337D01*
X4052Y39986D01*
X4251Y39688D01*
X8041Y35898D01*
X8339Y35699D01*
X8562Y35655D01*
X8662Y35414D01*
X8686Y35318D01*
X8685Y35238D01*
X8322Y34695D01*
X8184Y34000D01*
X8322Y33305D01*
X8716Y32716D01*
X9305Y32322D01*
X9360Y32311D01*
X9321Y31918D01*
X3038D01*
X2552Y32552D01*
X1800Y33129D01*
X924Y33492D01*
X-16Y33615D01*
X-955Y33492D01*
X-1831Y33129D01*
X-2583Y32552D01*
X-3160Y31800D01*
X-3523Y30924D01*
X-3647Y29984D01*
X-3523Y29044D01*
X-3160Y28169D01*
X-2583Y27417D01*
X-1831Y26840D01*
X-955Y26477D01*
X-16Y26353D01*
X924Y26477D01*
X1800Y26840D01*
X2552Y27417D01*
X3129Y28169D01*
X3492Y29044D01*
X3615Y29984D01*
X3701Y30082D01*
X7321D01*
X7360Y29689D01*
X7305Y29678D01*
X6716Y29284D01*
X6322Y28695D01*
X6184Y28000D01*
X6322Y27305D01*
X6716Y26716D01*
X7305Y26322D01*
X8000Y26184D01*
X8695Y26322D01*
X9284Y26716D01*
X9529Y27082D01*
X10464D01*
X10627Y26689D01*
X4856Y20918D01*
X3492D01*
X3492Y20924D01*
X3129Y21800D01*
X2552Y22552D01*
X1800Y23129D01*
X924Y23492D01*
X-16Y23615D01*
X-955Y23492D01*
X-1831Y23129D01*
X-2583Y22552D01*
X-3160Y21800D01*
X-3523Y20924D01*
X-3647Y19984D01*
X-3523Y19045D01*
X-3160Y18169D01*
X-2583Y17417D01*
X-1831Y16840D01*
X-955Y16477D01*
X-16Y16353D01*
X924Y16477D01*
X1800Y16840D01*
X2552Y17417D01*
X3129Y18169D01*
X3492Y19045D01*
X3497Y19082D01*
X5236D01*
X5587Y19152D01*
X5885Y19351D01*
X14289Y27756D01*
X14742D01*
X14909Y27645D01*
X15335Y27560D01*
X17691D01*
X17945Y27445D01*
X18060Y27191D01*
Y24835D01*
X18145Y24408D01*
X18256Y24242D01*
Y24081D01*
X11234Y17059D01*
X8661D01*
X8310Y16989D01*
X8013Y16791D01*
X3294Y12071D01*
X2901Y12097D01*
X2552Y12552D01*
X1800Y13129D01*
X924Y13492D01*
X-16Y13615D01*
X-955Y13492D01*
X-1831Y13129D01*
X-2583Y12552D01*
X-3160Y11800D01*
X-3523Y10924D01*
X-3647Y9984D01*
X-3523Y9044D01*
X-3160Y8169D01*
X-2583Y7417D01*
X-1831Y6840D01*
X-955Y6477D01*
X-16Y6353D01*
X924Y6477D01*
X1800Y6840D01*
X2552Y7417D01*
X3129Y8169D01*
X3492Y9044D01*
X3587Y9770D01*
X9042Y15224D01*
X9870D01*
X10033Y14830D01*
X5257Y10054D01*
X5058Y9757D01*
X4988Y9405D01*
Y-1772D01*
X5058Y-2123D01*
X5257Y-2420D01*
X9587Y-6751D01*
X9885Y-6950D01*
X10236Y-7020D01*
X15762D01*
X17980Y-9238D01*
Y-25598D01*
X18050Y-25949D01*
X18249Y-26247D01*
X20851Y-28849D01*
X21149Y-29048D01*
X21500Y-29118D01*
X29753D01*
X30104Y-29048D01*
X30402Y-28849D01*
X33088Y-26162D01*
X33106Y-26176D01*
X33981Y-26539D01*
X34921Y-26663D01*
X35861Y-26539D01*
X36737Y-26176D01*
X37489Y-25599D01*
X38066Y-24847D01*
X38429Y-23971D01*
X38552Y-23031D01*
X38429Y-22092D01*
X38066Y-21216D01*
X37489Y-20464D01*
X36737Y-19887D01*
X35861Y-19524D01*
X34921Y-19400D01*
X33981Y-19524D01*
X33106Y-19887D01*
X32354Y-20464D01*
X31777Y-21216D01*
X31414Y-22092D01*
X31290Y-23031D01*
X31414Y-23971D01*
X31777Y-24847D01*
X31790Y-24865D01*
X29373Y-27282D01*
X21880D01*
X19815Y-25218D01*
Y-19738D01*
X20179Y-19587D01*
X21790Y-21198D01*
X21777Y-21216D01*
X21414Y-22092D01*
X21290Y-23031D01*
X21414Y-23971D01*
X21777Y-24847D01*
X22354Y-25599D01*
X23106Y-26176D01*
X23981Y-26539D01*
X24921Y-26663D01*
X25861Y-26539D01*
X26737Y-26176D01*
X27489Y-25599D01*
X28066Y-24847D01*
X28429Y-23971D01*
X28552Y-23031D01*
X28429Y-22092D01*
X28066Y-21216D01*
X27489Y-20464D01*
X26737Y-19887D01*
X25861Y-19524D01*
X24921Y-19400D01*
X23981Y-19524D01*
X23106Y-19887D01*
X23088Y-19900D01*
X21193Y-18006D01*
Y-14467D01*
X21587Y-14389D01*
X21777Y-14847D01*
X22354Y-15599D01*
X23106Y-16176D01*
X23981Y-16539D01*
X24921Y-16663D01*
X25861Y-16539D01*
X26737Y-16176D01*
X27489Y-15599D01*
X28066Y-14847D01*
X28429Y-13971D01*
X28552Y-13032D01*
X28429Y-12092D01*
X28066Y-11216D01*
X28052Y-11198D01*
X29670Y-9580D01*
X29957Y-9520D01*
X30178Y-9585D01*
X31790Y-11198D01*
X31777Y-11216D01*
X31414Y-12092D01*
X31290Y-13032D01*
X31414Y-13971D01*
X31777Y-14847D01*
X32354Y-15599D01*
X33106Y-16176D01*
X33981Y-16539D01*
X34921Y-16663D01*
X35861Y-16539D01*
X36737Y-16176D01*
X37489Y-15599D01*
X37862Y-15113D01*
X38256Y-15247D01*
Y-16436D01*
X38326Y-16787D01*
X38524Y-17085D01*
X42158Y-20719D01*
X41777Y-21216D01*
X41414Y-22092D01*
X41290Y-23031D01*
X41414Y-23971D01*
X41777Y-24847D01*
X42354Y-25599D01*
X43106Y-26176D01*
X43982Y-26539D01*
X44921Y-26663D01*
X45861Y-26539D01*
X46737Y-26176D01*
X47489Y-25599D01*
X48066Y-24847D01*
X48429Y-23971D01*
X48552Y-23031D01*
X48429Y-22092D01*
X48066Y-21216D01*
X47489Y-20464D01*
X46769Y-19911D01*
X46768Y-19867D01*
X47029Y-19518D01*
X50110D01*
X51790Y-21198D01*
X51777Y-21216D01*
X51414Y-22092D01*
X51290Y-23031D01*
X51414Y-23971D01*
X51777Y-24847D01*
X52354Y-25599D01*
X53106Y-26176D01*
X53982Y-26539D01*
X54921Y-26663D01*
X55861Y-26539D01*
X56737Y-26176D01*
X57489Y-25599D01*
X58066Y-24847D01*
X58429Y-23971D01*
X58552Y-23031D01*
X58429Y-22092D01*
X58066Y-21216D01*
X57489Y-20464D01*
X56737Y-19887D01*
X55861Y-19524D01*
X54921Y-19400D01*
X53982Y-19524D01*
X53106Y-19887D01*
X53088Y-19900D01*
X51139Y-17951D01*
X50841Y-17752D01*
X50490Y-17682D01*
X43980D01*
X42523Y-16225D01*
X42783Y-15928D01*
X43106Y-16176D01*
X43982Y-16539D01*
X44921Y-16663D01*
X45861Y-16539D01*
X46737Y-16176D01*
X47489Y-15599D01*
X48066Y-14847D01*
X48429Y-13971D01*
X48552Y-13032D01*
X48429Y-12092D01*
X48066Y-11216D01*
X48052Y-11198D01*
X49650Y-9601D01*
X49671Y-9586D01*
X50154Y-9562D01*
X51790Y-11198D01*
X51777Y-11216D01*
X51414Y-12092D01*
X51290Y-13032D01*
X51414Y-13971D01*
X51777Y-14847D01*
X52354Y-15599D01*
X53106Y-16176D01*
X53982Y-16539D01*
X54921Y-16663D01*
X55861Y-16539D01*
X56737Y-16176D01*
X57489Y-15599D01*
X58066Y-14847D01*
X58429Y-13971D01*
X58552Y-13032D01*
X58429Y-12092D01*
X58066Y-11216D01*
X57489Y-10464D01*
X56737Y-9887D01*
X55861Y-9524D01*
X54921Y-9400D01*
X53982Y-9524D01*
X53106Y-9887D01*
X53088Y-9900D01*
X51533Y-8346D01*
Y-7971D01*
X51927Y-7852D01*
X52216Y-8284D01*
X52805Y-8678D01*
X53500Y-8816D01*
X54195Y-8678D01*
X54784Y-8284D01*
X55178Y-7695D01*
X55316Y-7000D01*
X55178Y-6305D01*
X54784Y-5716D01*
X54622Y-5607D01*
Y-3393D01*
X54784Y-3284D01*
X55178Y-2695D01*
X55316Y-2000D01*
X55178Y-1305D01*
X54784Y-716D01*
X54195Y-322D01*
X54004Y-284D01*
X53890Y92D01*
X55964Y2166D01*
X56163Y2464D01*
X56233Y2815D01*
Y8606D01*
X56626Y8684D01*
X56840Y8169D01*
X57417Y7417D01*
X58169Y6840D01*
X59044Y6477D01*
X59984Y6353D01*
X60924Y6477D01*
X61800Y6840D01*
X62552Y7417D01*
X63129Y8169D01*
X63492Y9044D01*
X63615Y9984D01*
X63492Y10924D01*
X63129Y11800D01*
X62552Y12552D01*
X61800Y13129D01*
X60924Y13492D01*
X59984Y13615D01*
X59276Y13522D01*
X53918Y18880D01*
Y24270D01*
X54281Y24421D01*
X56867Y21835D01*
X56840Y21800D01*
X56477Y20924D01*
X56353Y19984D01*
X56477Y19045D01*
X56840Y18169D01*
X57417Y17417D01*
X58169Y16840D01*
X59044Y16477D01*
X59984Y16353D01*
X60924Y16477D01*
X61800Y16840D01*
X62552Y17417D01*
X63129Y18169D01*
X63492Y19045D01*
X63615Y19984D01*
X63492Y20924D01*
X63129Y21800D01*
X62552Y22552D01*
X61800Y23129D01*
X60924Y23492D01*
X59984Y23615D01*
X59044Y23492D01*
X58169Y23129D01*
X55418Y25880D01*
Y32770D01*
X55781Y32921D01*
X56867Y31835D01*
X56840Y31800D01*
X56477Y30924D01*
X56353Y29984D01*
X56477Y29044D01*
X56840Y28169D01*
X57417Y27417D01*
X58169Y26840D01*
X59044Y26477D01*
X59984Y26353D01*
X60924Y26477D01*
X61800Y26840D01*
X62552Y27417D01*
X63129Y28169D01*
X63492Y29044D01*
X63615Y29984D01*
X63492Y30924D01*
X63129Y31800D01*
X62552Y32552D01*
X61800Y33129D01*
X60924Y33492D01*
X59984Y33615D01*
X59044Y33492D01*
X58169Y33129D01*
X56918Y34380D01*
Y37455D01*
X57290Y37581D01*
X57417Y37417D01*
X58169Y36840D01*
X59044Y36477D01*
X59984Y36353D01*
X60924Y36477D01*
X61800Y36840D01*
X62552Y37417D01*
X63129Y38169D01*
X63492Y39044D01*
X63615Y39984D01*
X63492Y40924D01*
X63129Y41800D01*
X62552Y42552D01*
X61800Y43129D01*
X60924Y43492D01*
X60918Y43492D01*
Y43800D01*
X60848Y44151D01*
X60649Y44449D01*
X59014Y46084D01*
X59198Y46457D01*
X59984Y46353D01*
X60924Y46477D01*
X61800Y46840D01*
X62552Y47417D01*
X63129Y48169D01*
X63492Y49044D01*
X63615Y49984D01*
X63492Y50924D01*
X63129Y51800D01*
X62552Y52552D01*
X61800Y53129D01*
X60924Y53492D01*
X59984Y53615D01*
X59044Y53492D01*
X58169Y53129D01*
X57149Y54149D01*
X56851Y54348D01*
X56500Y54418D01*
X56209D01*
X56089Y54811D01*
X56149Y54851D01*
X58151Y56853D01*
X58169Y56840D01*
X59044Y56477D01*
X59984Y56353D01*
X60924Y56477D01*
X61800Y56840D01*
X62552Y57417D01*
X63129Y58169D01*
X63492Y59044D01*
X63615Y59984D01*
X63492Y60924D01*
X63129Y61800D01*
X62552Y62552D01*
X61800Y63129D01*
X60924Y63492D01*
X59984Y63615D01*
X59044Y63492D01*
X58169Y63129D01*
X57417Y62552D01*
X56840Y61800D01*
X56477Y60924D01*
X56353Y59984D01*
X56477Y59044D01*
X56840Y58169D01*
X56853Y58151D01*
X55120Y56418D01*
X50179D01*
X50140Y56811D01*
X50195Y56822D01*
X50784Y57216D01*
X51178Y57805D01*
X51316Y58500D01*
X51178Y59195D01*
X50784Y59784D01*
X50195Y60178D01*
X49885Y60239D01*
Y60641D01*
X50301Y60724D01*
X50890Y61118D01*
X51099Y61430D01*
X51573D01*
X51716Y61216D01*
X52305Y60822D01*
X53000Y60684D01*
X53695Y60822D01*
X54284Y61216D01*
X54678Y61805D01*
X54816Y62500D01*
X54678Y63195D01*
X54284Y63784D01*
X54122Y63893D01*
Y83107D01*
X54284Y83216D01*
X54678Y83805D01*
X54816Y84500D01*
X54678Y85195D01*
X54284Y85784D01*
X54122Y85893D01*
Y93778D01*
X54485Y93929D01*
X56774Y91640D01*
X56477Y90924D01*
X56353Y89984D01*
X56477Y89044D01*
X56840Y88169D01*
X57417Y87417D01*
X58169Y86840D01*
X59044Y86477D01*
X59984Y86353D01*
X60924Y86477D01*
X61800Y86840D01*
X62552Y87417D01*
X63129Y88169D01*
X63492Y89044D01*
X63615Y89984D01*
X63492Y90924D01*
X63129Y91800D01*
X62552Y92552D01*
X61800Y93129D01*
X60924Y93492D01*
X59984Y93615D01*
X59044Y93492D01*
X58373Y93213D01*
X54519Y97067D01*
X54678Y97305D01*
X54816Y98000D01*
X54678Y98695D01*
X54284Y99284D01*
X53695Y99678D01*
X53000Y99816D01*
X52305Y99678D01*
X51716Y99284D01*
X51322Y98695D01*
X51184Y98000D01*
X51322Y97305D01*
X51716Y96716D01*
X51878Y96607D01*
Y85893D01*
X51716Y85784D01*
X51322Y85195D01*
X51184Y84500D01*
X51322Y83805D01*
X51716Y83216D01*
X51878Y83107D01*
Y63893D01*
X51716Y63784D01*
X51507Y63472D01*
X51034D01*
X50890Y63686D01*
X50301Y64079D01*
X49606Y64218D01*
X49085Y64114D01*
X47177Y66022D01*
Y76378D01*
X47108Y76729D01*
X46909Y77027D01*
X44350Y79586D01*
X44052Y79785D01*
X43701Y79855D01*
X34943D01*
X34289Y80509D01*
X34440Y80872D01*
X36072D01*
Y80882D01*
X36390D01*
Y84543D01*
Y88205D01*
X36072D01*
Y88214D01*
X29026D01*
X28876Y88578D01*
X29149Y88851D01*
X29348Y89149D01*
X29418Y89500D01*
Y95971D01*
X29784Y96216D01*
X30178Y96805D01*
X30316Y97500D01*
X30178Y98195D01*
X29784Y98784D01*
X29195Y99178D01*
X28500Y99316D01*
X27805Y99178D01*
X27216Y98784D01*
X26822Y98195D01*
X26811Y98140D01*
X26418Y98179D01*
Y100582D01*
X28632D01*
X31760Y97455D01*
Y95723D01*
X31829Y95372D01*
X32028Y95074D01*
X38534Y88569D01*
X38383Y88205D01*
X37390D01*
Y84543D01*
Y80882D01*
X38358D01*
Y84543D01*
X39358D01*
Y80882D01*
X39676D01*
Y80872D01*
X41978D01*
Y88214D01*
X41430D01*
X40521Y89124D01*
X40413Y89285D01*
X33595Y96103D01*
Y97835D01*
X33525Y98186D01*
X33326Y98484D01*
X29661Y102149D01*
X29363Y102348D01*
X29012Y102418D01*
X26418D01*
Y105500D01*
X26348Y105851D01*
X26149Y106149D01*
X24028Y108270D01*
Y110366D01*
X24386Y110696D01*
X33614D01*
X33965Y110766D01*
X34263Y110965D01*
X35570Y112272D01*
X35769Y112570D01*
X35839Y112921D01*
Y113786D01*
X41978D01*
Y117310D01*
X44828Y120160D01*
X45027Y120458D01*
X45097Y120809D01*
Y123416D01*
X45763D01*
Y126584D01*
X42595D01*
Y123416D01*
X43261D01*
Y121189D01*
X42342Y120269D01*
X41978Y120420D01*
Y121127D01*
X39776D01*
Y121207D01*
X39706Y121558D01*
X39507Y121856D01*
X37764Y123600D01*
Y126584D01*
X34595D01*
Y123416D01*
X35411D01*
X35530Y123238D01*
X37276Y121491D01*
X37126Y121127D01*
X33770D01*
Y121118D01*
X33453D01*
Y117457D01*
X32453D01*
Y121118D01*
X30930D01*
X30780Y121482D01*
X32470Y123172D01*
X32632Y123416D01*
X33406D01*
Y126584D01*
X30237D01*
Y123848D01*
X30157Y123795D01*
X29763Y124006D01*
Y126584D01*
X28857D01*
X26721Y128721D01*
X26390Y128942D01*
X26000Y129020D01*
X23517D01*
X23403Y129176D01*
X23602Y129569D01*
X26372D01*
Y133525D01*
X21628D01*
Y132300D01*
X20584D01*
Y132764D01*
X17415D01*
Y132300D01*
X16084D01*
Y132764D01*
X12915D01*
Y129595D01*
X16084D01*
Y130057D01*
X17415D01*
Y129595D01*
X18082D01*
Y125303D01*
X18152Y124952D01*
X18351Y124654D01*
X21523Y121482D01*
X21373Y121118D01*
X19673D01*
Y117457D01*
Y113795D01*
X20642D01*
Y117457D01*
X21642D01*
Y113795D01*
X21959D01*
Y113786D01*
X22193D01*
Y111483D01*
X19518Y108807D01*
X17214D01*
Y112978D01*
X13320D01*
X11840Y114457D01*
X11862Y114489D01*
X12000Y115184D01*
X11862Y115879D01*
X11468Y116468D01*
X10879Y116862D01*
X10184Y117000D01*
X9489Y116862D01*
X8900Y116468D01*
X8811Y116335D01*
X8418Y116455D01*
Y122000D01*
X8348Y122351D01*
X8149Y122649D01*
X4918Y125880D01*
Y135620D01*
X15880Y146582D01*
X20087D01*
X20207Y146189D01*
X20173Y146166D01*
X19779Y145577D01*
X19641Y144882D01*
X19779Y144187D01*
X20173Y143598D01*
X20762Y143204D01*
X21457Y143066D01*
X22152Y143204D01*
X22741Y143598D01*
X23134Y144187D01*
X23173Y144378D01*
X24305D01*
X24516Y143985D01*
X24322Y143695D01*
X24184Y143000D01*
X24222Y142808D01*
X23207Y141793D01*
X22964Y141429D01*
X22878Y141000D01*
X22878Y141000D01*
Y139431D01*
X21628D01*
Y135475D01*
X26372D01*
Y135807D01*
X26765Y135969D01*
X27915Y134819D01*
Y133237D01*
X31084D01*
Y136406D01*
X29502D01*
X27661Y138246D01*
X27297Y138489D01*
X26868Y138574D01*
X26868Y138574D01*
X26372D01*
Y139431D01*
X25122D01*
Y140535D01*
X25808Y141222D01*
X26000Y141184D01*
X26695Y141322D01*
X27284Y141716D01*
X27678Y142305D01*
X27816Y143000D01*
X27678Y143695D01*
X27484Y143985D01*
X27695Y144378D01*
X29429D01*
X32878Y140929D01*
Y135882D01*
X32878Y135882D01*
X32964Y135453D01*
X33207Y135089D01*
X35821Y132475D01*
X35821Y132475D01*
X36185Y132231D01*
X36614Y132146D01*
X44094D01*
X44094Y132146D01*
X44524Y132231D01*
X44888Y132475D01*
X46793Y134380D01*
X46793Y134380D01*
X47036Y134744D01*
X47101Y135069D01*
X48372D01*
Y137833D01*
X49052Y138513D01*
X49415Y138362D01*
Y138236D01*
X52584D01*
Y141405D01*
X52122D01*
Y144214D01*
X60045Y152138D01*
X60045Y152138D01*
X60288Y152502D01*
X60374Y152931D01*
Y162146D01*
X60836D01*
Y165315D01*
D02*
G37*
G36*
X16114Y154181D02*
X12874D01*
Y151340D01*
X16114D01*
Y154181D01*
D02*
G37*
G36*
X26941Y157574D02*
X25382D01*
Y153984D01*
Y150393D01*
X26941D01*
Y153984D01*
Y157574D01*
D02*
G37*
G36*
X20354Y158022D02*
X17114D01*
Y154681D01*
Y151340D01*
X20354D01*
Y154172D01*
X20748Y154292D01*
X20792Y154225D01*
X21404Y153816D01*
X22126Y153673D01*
X22848Y153816D01*
X23148Y154017D01*
X23541Y153806D01*
Y150393D01*
X24382D01*
Y153984D01*
Y157574D01*
X23541D01*
Y157312D01*
X23148Y157101D01*
X22848Y157302D01*
X22126Y157445D01*
X21404Y157302D01*
X20792Y156893D01*
X20748Y156826D01*
X20354Y156946D01*
Y158022D01*
D02*
G37*
G36*
X59842Y150438D02*
X59148Y150300D01*
X58558Y149906D01*
X58165Y149317D01*
X58026Y148622D01*
X58165Y147927D01*
X58558Y147338D01*
X58721Y147229D01*
Y145257D01*
X57296D01*
Y141058D01*
X61996D01*
Y145257D01*
X60964D01*
Y147229D01*
X61127Y147338D01*
X61520Y147927D01*
X61659Y148622D01*
X61520Y149317D01*
X61127Y149906D01*
X60537Y150300D01*
X59842Y150438D01*
D02*
G37*
G36*
X18673Y121118D02*
X18032D01*
Y117957D01*
X18673D01*
Y121118D01*
D02*
G37*
G36*
Y116957D02*
X18032D01*
Y113795D01*
X18673D01*
Y116957D01*
D02*
G37*
G36*
X50118Y112969D02*
X46957D01*
Y112327D01*
X50118D01*
Y112969D01*
D02*
G37*
G36*
X45957D02*
X42795D01*
Y112327D01*
X45957D01*
Y112969D01*
D02*
G37*
G36*
X50118Y111327D02*
X46457D01*
X42795D01*
Y110358D01*
X46457D01*
X50118D01*
Y111327D01*
D02*
G37*
G36*
X31084Y132764D02*
X27915D01*
Y129595D01*
X29787D01*
X30030Y129351D01*
X30328Y129152D01*
X30679Y129082D01*
X49120D01*
X51082Y127120D01*
Y109380D01*
X50521Y108819D01*
X50128Y108835D01*
Y109041D01*
X50118D01*
Y109358D01*
X46457D01*
X42795D01*
Y109041D01*
X42786D01*
Y104770D01*
Y100833D01*
Y96896D01*
Y92959D01*
Y89022D01*
X50128D01*
Y90991D01*
Y94928D01*
Y98865D01*
Y102802D01*
Y106972D01*
X50890D01*
X51241Y107042D01*
X51539Y107241D01*
X52649Y108351D01*
X52848Y108649D01*
X52918Y109000D01*
Y127500D01*
X52848Y127851D01*
X52649Y128149D01*
X50149Y130649D01*
X49851Y130848D01*
X49500Y130918D01*
X31084D01*
Y132764D01*
D02*
G37*
G36*
X61996Y139258D02*
X57296D01*
Y135057D01*
X58878D01*
Y113423D01*
X58169Y113129D01*
X57417Y112552D01*
X56840Y111800D01*
X56477Y110924D01*
X56353Y109984D01*
X56477Y109045D01*
X56840Y108169D01*
X57417Y107417D01*
X58169Y106840D01*
X59044Y106477D01*
X59984Y106353D01*
X60924Y106477D01*
X61800Y106840D01*
X62552Y107417D01*
X63129Y108169D01*
X63492Y109045D01*
X63615Y109984D01*
X63492Y110924D01*
X63129Y111800D01*
X62552Y112552D01*
X61800Y113129D01*
X61122Y113410D01*
Y135057D01*
X61996D01*
Y139258D01*
D02*
G37*
G36*
X59984Y83615D02*
X59044Y83492D01*
X58169Y83129D01*
X57417Y82552D01*
X56840Y81800D01*
X56477Y80924D01*
X56353Y79984D01*
X56477Y79045D01*
X56840Y78169D01*
X57417Y77417D01*
X58169Y76840D01*
X59044Y76477D01*
X59984Y76353D01*
X60924Y76477D01*
X61800Y76840D01*
X62552Y77417D01*
X63129Y78169D01*
X63492Y79045D01*
X63615Y79984D01*
X63492Y80924D01*
X63129Y81800D01*
X62552Y82552D01*
X61800Y83129D01*
X60924Y83492D01*
X59984Y83615D01*
D02*
G37*
G36*
Y73615D02*
X59044Y73492D01*
X58169Y73129D01*
X57417Y72552D01*
X56840Y71800D01*
X56477Y70924D01*
X56353Y69984D01*
X56477Y69045D01*
X56840Y68169D01*
X57417Y67417D01*
X58169Y66840D01*
X59044Y66477D01*
X59984Y66353D01*
X60924Y66477D01*
X61800Y66840D01*
X62552Y67417D01*
X63129Y68169D01*
X63492Y69045D01*
X63615Y69984D01*
X63492Y70924D01*
X63129Y71800D01*
X62552Y72552D01*
X61800Y73129D01*
X60924Y73492D01*
X59984Y73615D01*
D02*
G37*
G36*
Y3615D02*
X59044Y3492D01*
X58169Y3129D01*
X57417Y2552D01*
X56840Y1800D01*
X56477Y924D01*
X56353Y-16D01*
X56477Y-955D01*
X56840Y-1831D01*
X57417Y-2583D01*
X58169Y-3160D01*
X59044Y-3523D01*
X59984Y-3647D01*
X60924Y-3523D01*
X61800Y-3160D01*
X62552Y-2583D01*
X63129Y-1831D01*
X63492Y-955D01*
X63615Y-16D01*
X63492Y924D01*
X63129Y1800D01*
X62552Y2552D01*
X61800Y3129D01*
X60924Y3492D01*
X59984Y3615D01*
D02*
G37*
G36*
X4921Y-9400D02*
X3982Y-9524D01*
X3106Y-9887D01*
X2354Y-10464D01*
X1777Y-11216D01*
X1414Y-12092D01*
X1290Y-13032D01*
X1414Y-13971D01*
X1777Y-14847D01*
X2354Y-15599D01*
X3106Y-16176D01*
X3982Y-16539D01*
X4921Y-16663D01*
X5861Y-16539D01*
X6737Y-16176D01*
X7489Y-15599D01*
X8066Y-14847D01*
X8429Y-13971D01*
X8552Y-13032D01*
X8429Y-12092D01*
X8066Y-11216D01*
X7489Y-10464D01*
X6737Y-9887D01*
X5861Y-9524D01*
X4921Y-9400D01*
D02*
G37*
G36*
Y-19400D02*
X3982Y-19524D01*
X3106Y-19887D01*
X2354Y-20464D01*
X1777Y-21216D01*
X1414Y-22092D01*
X1290Y-23031D01*
X1414Y-23971D01*
X1777Y-24847D01*
X2354Y-25599D01*
X3106Y-26176D01*
X3982Y-26539D01*
X4921Y-26663D01*
X5861Y-26539D01*
X6737Y-26176D01*
X7489Y-25599D01*
X8066Y-24847D01*
X8429Y-23971D01*
X8552Y-23031D01*
X8429Y-22092D01*
X8066Y-21216D01*
X7489Y-20464D01*
X6737Y-19887D01*
X5861Y-19524D01*
X4921Y-19400D01*
D02*
G37*
%LPD*%
G36*
X22193Y108373D02*
Y107890D01*
X22263Y107539D01*
X22461Y107241D01*
X24582Y105120D01*
Y102418D01*
X23000D01*
X22649Y102348D01*
X22351Y102149D01*
X19167Y98965D01*
X17214D01*
Y100833D01*
Y105104D01*
X17205D01*
Y105421D01*
X13543D01*
Y106421D01*
X17205D01*
Y106739D01*
X17214D01*
Y106972D01*
X19898D01*
X20249Y107042D01*
X20547Y107241D01*
X21829Y108523D01*
X22193Y108373D01*
D02*
G37*
G36*
X8835Y99367D02*
X9133Y99168D01*
X9484Y99098D01*
X9872D01*
Y96896D01*
X9882D01*
Y96579D01*
X17205D01*
Y96896D01*
X17214D01*
Y97130D01*
X19547D01*
X19898Y97199D01*
X20196Y97398D01*
X23380Y100582D01*
X24582D01*
Y96380D01*
X22620Y94418D01*
X21000D01*
X20649Y94348D01*
X20351Y94149D01*
X17598Y91396D01*
X17205Y91559D01*
Y91642D01*
X9882D01*
Y91324D01*
X9872D01*
Y89022D01*
X17214D01*
Y89256D01*
X17673D01*
X18024Y89325D01*
X18322Y89524D01*
X19757Y90959D01*
X20130Y90825D01*
X20196Y90494D01*
X18524Y88822D01*
X18326Y88524D01*
X18264Y88214D01*
X18022D01*
Y80872D01*
X18256D01*
Y79856D01*
X17889Y79611D01*
X17495Y79022D01*
X17357Y78327D01*
X17495Y77632D01*
X17620Y77446D01*
X17434Y77099D01*
X16325D01*
X6918Y86506D01*
Y100728D01*
X7311Y100891D01*
X8835Y99367D01*
D02*
G37*
G36*
X3582Y88235D02*
Y85461D01*
X3652Y85110D01*
X3851Y84812D01*
X14706Y73957D01*
X14898Y73829D01*
X14779Y73435D01*
X12736D01*
Y73435D01*
X12345Y73441D01*
X12310Y73470D01*
X12316Y73500D01*
X12178Y74195D01*
X11784Y74784D01*
X11195Y75178D01*
X10500Y75316D01*
X9805Y75178D01*
X9216Y74784D01*
X8822Y74195D01*
X8684Y73500D01*
X8822Y72805D01*
X9216Y72216D01*
X9805Y71822D01*
X10500Y71684D01*
X10812Y71746D01*
X11779Y70779D01*
X12110Y70558D01*
X12500Y70480D01*
X12736D01*
Y70266D01*
X13261D01*
Y69012D01*
X12932Y68683D01*
X10052D01*
Y64483D01*
X14752D01*
Y65903D01*
X16916D01*
Y65237D01*
X20085D01*
Y68405D01*
X16916D01*
Y67739D01*
X15120D01*
X15115Y67743D01*
X14928Y68132D01*
X15027Y68281D01*
X15097Y68632D01*
Y70266D01*
X15905D01*
Y73180D01*
X16142Y73318D01*
X16378Y73180D01*
Y70266D01*
X19547D01*
Y70582D01*
X20120D01*
X20770Y69932D01*
X20684Y69500D01*
X20822Y68805D01*
X21216Y68216D01*
X21805Y67822D01*
X22193Y67745D01*
Y57370D01*
X21799Y57251D01*
X21791Y57263D01*
X15422Y63631D01*
X15124Y63831D01*
X14773Y63900D01*
X10040D01*
X9992Y63910D01*
X9632D01*
X6918Y66624D01*
Y80000D01*
X6848Y80351D01*
X6649Y80649D01*
X1152Y86145D01*
X1245Y86610D01*
X1800Y86840D01*
X2552Y87417D01*
X3129Y88169D01*
X3189Y88313D01*
X3582Y88235D01*
D02*
G37*
G36*
X20050Y50405D02*
Y50317D01*
X39950D01*
Y50405D01*
X40344Y50615D01*
X40401Y50577D01*
X40827Y50493D01*
X40993Y50327D01*
X41078Y49901D01*
X41115Y49844D01*
X40905Y49450D01*
X40817D01*
Y45298D01*
Y41361D01*
Y37424D01*
Y33487D01*
Y29550D01*
X40905D01*
X41115Y29156D01*
X41078Y29099D01*
X40993Y28673D01*
X40827Y28507D01*
X40401Y28422D01*
X40344Y28385D01*
X39950Y28595D01*
Y28683D01*
X20050D01*
Y28595D01*
X19656Y28385D01*
X19599Y28422D01*
X19173Y28507D01*
X19007Y28673D01*
X18923Y29099D01*
X18885Y29156D01*
X19095Y29550D01*
X19183D01*
Y33487D01*
Y37424D01*
Y41361D01*
Y45298D01*
Y49450D01*
X19095D01*
X18885Y49844D01*
X18923Y49901D01*
X19007Y50327D01*
X19173Y50493D01*
X19599Y50577D01*
X19656Y50615D01*
X20050Y50405D01*
D02*
G37*
G36*
X33582Y14579D02*
Y2143D01*
X28485Y-2954D01*
X28286Y-3252D01*
X28216Y-3603D01*
Y-8439D01*
X26755Y-9900D01*
X26737Y-9887D01*
X25861Y-9524D01*
X24921Y-9400D01*
X23981Y-9524D01*
X23106Y-9887D01*
X22354Y-10464D01*
X21777Y-11216D01*
X21587Y-11674D01*
X21193Y-11596D01*
Y-9435D01*
X26436Y-4192D01*
X26635Y-3895D01*
X26705Y-3543D01*
Y9868D01*
X32982D01*
Y14604D01*
X33351Y14765D01*
X33582Y14579D01*
D02*
G37*
%LPC*%
G36*
X17205Y95579D02*
X9882D01*
Y94937D01*
Y94610D01*
X17205D01*
Y95579D01*
D02*
G37*
G36*
Y93610D02*
X9882D01*
Y92642D01*
X17205D01*
Y92968D01*
Y93610D01*
D02*
G37*
%LPD*%
D10*
X43386Y28673D02*
D03*
Y50327D02*
D03*
X16614D02*
D03*
Y28673D02*
D03*
D11*
X43287Y30642D02*
D03*
Y32610D02*
D03*
Y34579D02*
D03*
Y36547D02*
D03*
Y38516D02*
D03*
Y40484D02*
D03*
Y42453D02*
D03*
Y44421D02*
D03*
Y46390D02*
D03*
Y48358D02*
D03*
X16713D02*
D03*
Y46390D02*
D03*
Y44421D02*
D03*
Y42453D02*
D03*
Y40484D02*
D03*
Y38516D02*
D03*
Y36547D02*
D03*
Y34579D02*
D03*
Y32610D02*
D03*
Y30642D02*
D03*
D12*
X40827Y52886D02*
D03*
X19173D02*
D03*
Y26114D02*
D03*
X40827D02*
D03*
D13*
X38858Y52787D02*
D03*
X36890D02*
D03*
X34921D02*
D03*
X32953D02*
D03*
X30984D02*
D03*
X29016D02*
D03*
X27047D02*
D03*
X25079D02*
D03*
X23110D02*
D03*
X21142D02*
D03*
Y26213D02*
D03*
X23110D02*
D03*
X25079D02*
D03*
X27047D02*
D03*
X29016D02*
D03*
X30984D02*
D03*
X32953D02*
D03*
X34921D02*
D03*
X36890D02*
D03*
X38858D02*
D03*
D14*
X30000Y39500D02*
D03*
D15*
X26063Y166780D02*
D03*
X33937D02*
D03*
D16*
X16614Y154681D02*
D03*
X43386D02*
D03*
D17*
X35118Y153984D02*
D03*
X24882D02*
D03*
X27441D02*
D03*
X32559D02*
D03*
X30000D02*
D03*
D18*
X45177Y12732D02*
D03*
Y4268D02*
D03*
X29823D02*
D03*
Y12732D02*
D03*
D19*
X13543Y111827D02*
D03*
Y109858D02*
D03*
Y107890D02*
D03*
Y105921D02*
D03*
Y103953D02*
D03*
Y101984D02*
D03*
Y100016D02*
D03*
Y98047D02*
D03*
Y96079D02*
D03*
Y94110D02*
D03*
Y92142D02*
D03*
Y90173D02*
D03*
X46457D02*
D03*
Y92142D02*
D03*
Y94110D02*
D03*
Y96079D02*
D03*
Y98047D02*
D03*
Y100016D02*
D03*
Y101984D02*
D03*
Y103953D02*
D03*
Y105921D02*
D03*
Y107890D02*
D03*
Y109858D02*
D03*
Y111827D02*
D03*
D20*
X19173Y84543D02*
D03*
X21142D02*
D03*
X23110D02*
D03*
X25079D02*
D03*
X27047D02*
D03*
X29016D02*
D03*
X30984D02*
D03*
X32953D02*
D03*
X34921D02*
D03*
X36890D02*
D03*
X38858D02*
D03*
X40827D02*
D03*
Y117457D02*
D03*
X38858D02*
D03*
X36890D02*
D03*
X34921D02*
D03*
X32953D02*
D03*
X30984D02*
D03*
X29016D02*
D03*
X27047D02*
D03*
X25079D02*
D03*
X23110D02*
D03*
X21142D02*
D03*
X19173D02*
D03*
D21*
X52953Y162551D02*
D03*
Y168551D02*
D03*
X40000Y137000D02*
D03*
Y143000D02*
D03*
X12402Y60583D02*
D03*
Y66583D02*
D03*
X59646Y143157D02*
D03*
Y137157D02*
D03*
D22*
X46000Y137047D02*
D03*
Y142953D02*
D03*
X24000Y137453D02*
D03*
Y131547D02*
D03*
D23*
X14000Y10500D02*
D03*
Y6169D02*
D03*
X19906Y10500D02*
D03*
Y6169D02*
D03*
D24*
X28179Y125000D02*
D03*
X31821D02*
D03*
X40679Y18500D02*
D03*
X44321D02*
D03*
X14321Y71850D02*
D03*
X17963D02*
D03*
X47821Y125000D02*
D03*
X44179D02*
D03*
X39821D02*
D03*
X36179D02*
D03*
D25*
X59252Y167372D02*
D03*
Y163730D02*
D03*
X29500Y131179D02*
D03*
Y134821D02*
D03*
X51000Y136179D02*
D03*
Y139821D02*
D03*
X14500Y134821D02*
D03*
Y131179D02*
D03*
X19000Y134821D02*
D03*
Y131179D02*
D03*
X18500Y63179D02*
D03*
Y66821D02*
D03*
D26*
X39764Y88583D02*
Y88636D01*
X32677Y95723D02*
X39764Y88636D01*
X32677Y95723D02*
Y97835D01*
X60000Y40000D02*
Y43800D01*
X52300Y51500D02*
X60000Y43800D01*
X49000Y51500D02*
X52300D01*
X48000Y16500D02*
Y28716D01*
X43287Y30642D02*
X46074D01*
X48000Y28716D01*
X5906Y9405D02*
X10870Y14370D01*
X5906Y-1772D02*
Y9405D01*
Y-1772D02*
X10236Y-6102D01*
X43386Y50327D02*
X46559Y53500D01*
X56500D01*
X40827Y52886D02*
X43441Y55500D01*
X55500D01*
X12500Y59559D02*
X19173Y52886D01*
X12500Y59559D02*
Y61047D01*
X16614Y50327D02*
Y52386D01*
X11500Y57500D02*
X16614Y52386D01*
X10000Y57500D02*
X11500D01*
X13909Y28673D02*
X16614D01*
X5236Y20000D02*
X13909Y28673D01*
X0Y20000D02*
X5236D01*
X11614Y16142D02*
X19173Y23701D01*
X8661Y16142D02*
X11614D01*
X2520Y10000D02*
X8661Y16142D01*
X0Y10000D02*
X2520D01*
X10870Y14370D02*
X12205D01*
X10236Y7764D02*
Y11552D01*
X11659Y12975D01*
X12975D01*
X19173Y23701D02*
Y26114D01*
X12205Y14370D02*
X21142Y23307D01*
X23110Y23110D02*
Y26213D01*
Y24685D02*
Y26213D01*
X14000Y12303D02*
X25079Y23382D01*
X12975Y12975D02*
X23110Y23110D01*
X14000Y10500D02*
Y12303D01*
X22638Y19095D02*
X27047Y23504D01*
X22638Y19081D02*
Y19095D01*
X19906Y16349D02*
X22638Y19081D01*
X19906Y10500D02*
Y16349D01*
X23500Y4000D02*
Y17000D01*
X33134Y104000D02*
X39764Y110630D01*
X29500Y104000D02*
X33134D01*
X13543Y94110D02*
Y96079D01*
X40827Y84543D02*
Y87520D01*
X39764Y88583D02*
X40827Y87520D01*
X46457Y111827D02*
Y114764D01*
X44291Y116929D02*
X46457Y114764D01*
X44291Y116929D02*
X47821Y120459D01*
Y125000D01*
X33614Y111614D02*
X34921Y112921D01*
X24386Y111614D02*
X33614D01*
X23110Y112890D02*
X24386Y111614D01*
X23110Y111102D02*
Y112890D01*
X19898Y107890D02*
X23110Y111102D01*
X13543Y107890D02*
X19898D01*
X46457Y109858D02*
Y111827D01*
X45065Y127756D02*
X47821Y125000D01*
X34055Y126575D02*
X35236Y127756D01*
X49500Y130000D02*
X52000Y127500D01*
X30679Y130000D02*
X49500D01*
X52000Y109000D02*
Y127500D01*
X34055Y123228D02*
Y126575D01*
X32953Y122126D02*
X34055Y123228D01*
X32953Y117457D02*
Y122126D01*
X13543Y105921D02*
X19079D01*
X19000Y125303D02*
Y131179D01*
X4000Y136000D02*
X15500Y147500D01*
X50394Y132480D02*
X51000Y133087D01*
Y136179D01*
X10498Y64183D02*
X15270D01*
X16274Y63179D01*
X14773Y62983D02*
X21142Y56614D01*
X10001Y62983D02*
X14773D01*
X9992Y62992D02*
X10001Y62983D01*
X10489Y64192D02*
X10498Y64183D01*
X12632Y66821D02*
X18500D01*
X12500Y66953D02*
X12632Y66821D01*
X12500Y66953D02*
X14179Y68632D01*
Y71500D01*
X16274Y63179D02*
X18500D01*
X21142Y52787D02*
Y56614D01*
X19000Y125303D02*
X23110Y121193D01*
X12610Y32610D02*
X16713D01*
X11000Y31000D02*
X12610Y32610D01*
X8690Y36547D02*
X16713D01*
X1000Y31000D02*
X11000D01*
X13543Y98047D02*
X19547D01*
X50890Y107890D02*
X52000Y109000D01*
X46457Y107890D02*
X50890D01*
X30984Y117457D02*
X32953D01*
X23110Y112890D02*
Y117457D01*
X34921Y112921D02*
Y117457D01*
X30984Y80016D02*
Y84543D01*
X10579Y34579D02*
X16713D01*
X43287Y40484D02*
X46516D01*
X16713D02*
X18213D01*
X43287Y42453D02*
X48953D01*
X49000Y42500D01*
X13543Y90173D02*
X17673D01*
X23110Y88110D02*
X26000Y91000D01*
X23110Y84543D02*
Y88110D01*
X27047Y84543D02*
Y88047D01*
X19547Y98047D02*
X23000Y101500D01*
X27047Y88047D02*
X28500Y89500D01*
Y97500D01*
X29016Y52787D02*
Y57016D01*
X33000Y52835D02*
X33065Y52900D01*
X39000Y52929D02*
Y55500D01*
X36890Y52787D02*
Y55390D01*
X34921Y52787D02*
Y55421D01*
X32953Y52787D02*
Y57453D01*
X36000Y60500D02*
Y71000D01*
X30984Y52787D02*
Y57984D01*
X31000Y58000D01*
X32953Y57453D02*
X34000Y58500D01*
X36000Y60500D01*
X30984Y57984D02*
Y59484D01*
X33500Y62000D01*
X29000Y57032D02*
X29016Y57016D01*
X27047Y52787D02*
Y60547D01*
X23110Y52787D02*
Y68610D01*
X8500Y59000D02*
X10000Y57500D01*
X14142Y48358D02*
X16713D01*
X12000Y50500D02*
X14142Y48358D01*
X12000Y50500D02*
Y52500D01*
X6500Y58000D02*
X12000Y52500D01*
X16665Y42500D02*
X16713Y42453D01*
X16602Y46500D02*
X16713Y46390D01*
X10051Y50000D02*
X13551Y46500D01*
X16602D01*
X13500Y42500D02*
X16665D01*
X10000Y46000D02*
X13500Y42500D01*
X13016Y40484D02*
X16713D01*
X12000Y41500D02*
X13016Y40484D01*
X10000Y41500D02*
X12000D01*
X10000Y34000D02*
X10579Y34579D01*
X8984Y38516D02*
X16713D01*
X6500Y41000D02*
X8984Y38516D01*
X4900Y40337D02*
X8690Y36547D01*
X4900Y40337D02*
Y43500D01*
X4400Y44000D02*
X4900Y43500D01*
X2500Y44000D02*
X4400D01*
X6500Y41000D02*
Y44163D01*
X5063Y45600D02*
X6500Y44163D01*
X2500Y45600D02*
X5063D01*
X0Y48100D02*
X2500Y45600D01*
X0Y48100D02*
Y50000D01*
Y41500D02*
X2500Y44000D01*
X0Y40000D02*
Y41500D01*
X8000Y28000D02*
X11000D01*
X13642Y30642D01*
X16713D01*
X0Y30000D02*
X1000Y31000D01*
X51500Y41500D02*
Y45500D01*
X55500Y55500D02*
X60000Y60000D01*
X43287Y48358D02*
X45858D01*
X43287Y46390D02*
X46390D01*
X56500Y53500D02*
X60000Y50000D01*
X46390Y46390D02*
X49500Y49500D01*
X45858Y48358D02*
X49000Y51500D01*
X49500Y49500D02*
X52500D01*
X43287Y44421D02*
X46921D01*
X50500Y48000D01*
X52303D01*
X43287Y38516D02*
X45984D01*
X17821Y71500D02*
X20500D01*
X22250Y69750D01*
X22750D01*
X0Y76500D02*
Y80000D01*
Y76500D02*
X4500Y72000D01*
X0Y86000D02*
Y90000D01*
Y100000D02*
X4500Y95500D01*
X0Y107000D02*
Y110000D01*
Y107000D02*
X6000Y101000D01*
X39000Y55500D02*
X42000Y58500D01*
X32953Y80547D02*
Y84543D01*
X41500Y75000D02*
Y75500D01*
Y75000D02*
X42000Y74500D01*
X19173Y78327D02*
Y84543D01*
Y88173D01*
X22000Y91000D01*
X29000Y69500D02*
X29500Y70000D01*
X23110Y80890D02*
X26000Y78000D01*
X23110Y80890D02*
Y84543D01*
X34000Y73000D02*
X36000Y71000D01*
X26000Y78000D02*
X27500D01*
X27047Y80453D02*
X28000Y79500D01*
X27047Y80453D02*
Y84543D01*
X27500Y78000D02*
X32500Y73000D01*
X34000D01*
X10016Y101984D02*
X13543D01*
X7500Y104500D02*
X10016Y101984D01*
X6000Y103500D02*
X9484Y100016D01*
X13543D01*
X29000Y149000D02*
X30000Y150000D01*
Y153984D01*
X7500Y104500D02*
Y122000D01*
X4000Y125500D02*
X7500Y122000D01*
X4000Y125500D02*
Y136000D01*
X40827Y117457D02*
X44179Y120809D01*
Y125000D01*
X29016Y117457D02*
Y121016D01*
X31821Y123821D01*
Y125000D01*
X29500Y131179D02*
X30679Y130000D01*
X45984Y38516D02*
X46000Y38500D01*
X43287Y36547D02*
X48953D01*
X49500Y36000D01*
X46516Y40484D02*
X47000Y40000D01*
X56000Y34000D02*
X60000Y30000D01*
X56000Y34000D02*
Y46000D01*
X52500Y49500D02*
X56000Y46000D01*
X54500Y25500D02*
X60000Y20000D01*
X54500Y25500D02*
Y45803D01*
X52303Y48000D02*
X54500Y45803D01*
X47000Y40000D02*
X50000D01*
X51500Y41500D01*
X46000Y38500D02*
X50500D01*
X53000Y36000D01*
Y18500D02*
Y36000D01*
Y18500D02*
X60000Y11500D01*
Y10000D02*
Y11500D01*
X42000Y58500D02*
X44500D01*
X42000D02*
Y74500D01*
X33500Y62000D02*
Y70000D01*
X28000Y79500D02*
X29500D01*
X27000Y60594D02*
X27047Y60547D01*
X0Y86000D02*
X6000Y80000D01*
X23110Y117457D02*
Y121193D01*
X13543Y94110D02*
X19610D01*
X21500Y96000D01*
X25500D02*
Y101500D01*
X17673Y90173D02*
X21000Y93500D01*
X23000D01*
X25500Y96000D01*
X10184Y114816D02*
Y115184D01*
Y114816D02*
X13173Y111827D01*
X13543D01*
X19079Y105921D02*
X21500Y103500D01*
X23110Y107890D02*
Y111102D01*
Y107890D02*
X25500Y105500D01*
Y101500D02*
Y105500D01*
X23000Y101500D02*
X25500D01*
X30984Y80016D02*
X33419Y77581D01*
X42769D01*
X32953Y80547D02*
X34563Y78937D01*
X31000Y18500D02*
Y20500D01*
X32953Y22453D01*
Y26213D01*
X33000Y26165D01*
X29134Y-8819D02*
Y-3603D01*
X24921Y-13032D02*
X29134Y-8819D01*
X31000Y18500D02*
X34500Y15000D01*
Y1763D02*
Y15000D01*
X39173Y-16436D02*
X44921Y-22184D01*
Y-23031D02*
Y-22184D01*
X38000Y-6504D02*
Y20500D01*
Y-6504D02*
X40773Y-9277D01*
X38000Y20500D02*
X40827Y23327D01*
Y26114D01*
X34000Y20221D02*
X35000Y21220D01*
X35500Y-6267D02*
X39173Y-9940D01*
X35000Y21220D02*
Y26134D01*
X34921Y26213D02*
X35000Y26134D01*
X35500Y-6267D02*
Y-3000D01*
X34000Y19500D02*
Y20221D01*
X11831Y6169D02*
X14000D01*
X10236Y-6102D02*
X16142D01*
X40773Y-15773D02*
Y-9277D01*
X39173Y-16436D02*
Y-9940D01*
X29134Y-3603D02*
X34500Y1763D01*
X30734Y-4266D02*
X36500Y1500D01*
X30734Y-8844D02*
Y-4266D01*
Y-8844D02*
X34921Y-13032D01*
X50616Y-8726D02*
Y-1884D01*
Y-8726D02*
X54921Y-13032D01*
X44921D02*
X49016Y-8937D01*
X46684Y34579D02*
X51600Y29663D01*
Y17400D02*
Y29663D01*
X43287Y34579D02*
X46684D01*
X43287Y32610D02*
X46390D01*
X50000Y29000D01*
Y16737D02*
Y29000D01*
X44488Y63512D02*
X49500Y58500D01*
X44488Y63512D02*
Y75862D01*
X42769Y77581D02*
X44488Y75862D01*
X46260Y65642D02*
X49500Y62402D01*
X9268Y92142D02*
X13543D01*
Y94110D01*
X8268Y87205D02*
Y91142D01*
X9268Y92142D01*
X25500Y101500D02*
X29012D01*
X32677Y97835D01*
X50616Y-1884D02*
X55315Y2815D01*
Y13685D01*
X51600Y17400D02*
X55315Y13685D01*
X44847Y12402D02*
X45177Y12732D01*
X44847Y12402D02*
X45472D01*
X49016Y-8937D02*
Y-984D01*
X45472Y12402D02*
X49606Y8268D01*
X46500Y-1000D02*
X51968Y4468D01*
Y12531D01*
X48000Y16500D02*
X51968Y12531D01*
X49016Y-984D02*
X53740Y3740D01*
Y12997D01*
X50000Y16737D02*
X53740Y12997D01*
X39961Y9658D02*
X40679Y10376D01*
X8500Y4098D02*
Y4500D01*
Y4098D02*
X14961Y-2362D01*
X8268Y0D02*
X12402Y-4134D01*
X19685D01*
X22047Y-1772D01*
X14961Y-2362D02*
X17138D01*
X23500Y4000D01*
X40482Y11811D02*
X40679Y11614D01*
X40157Y11811D02*
X40482D01*
X40679Y10376D02*
Y11614D01*
Y18000D01*
X39961Y-3740D02*
Y9658D01*
Y-3740D02*
X41535Y-5315D01*
X43701D01*
X25787Y-3543D02*
Y18898D01*
X29016Y22126D01*
Y26213D01*
X0Y66929D02*
Y70000D01*
Y66929D02*
X6500Y60429D01*
Y58000D02*
Y60429D01*
X25079Y23382D02*
Y26213D01*
X27047Y23504D02*
Y26213D01*
X36500Y1500D02*
Y21539D01*
X38858Y23898D01*
Y26213D01*
X37795Y127756D02*
X39821Y125730D01*
Y125000D02*
Y125730D01*
X35236Y127756D02*
X37795D01*
X45065D01*
X9252Y62992D02*
X9992D01*
X6000Y103500D02*
Y121362D01*
X2362Y125000D02*
X6000Y121362D01*
X2362Y125000D02*
Y136811D01*
X14551Y149000D01*
X29000D01*
X15500Y147500D02*
X29980D01*
X32559Y150079D01*
Y153984D01*
X6000Y86126D02*
Y101000D01*
Y86126D02*
X15945Y76181D01*
X4500Y85461D02*
Y95500D01*
Y85461D02*
X15354Y74606D01*
X20894D01*
X21142Y23307D02*
Y26213D01*
X10236Y7764D02*
X11831Y6169D01*
X34921Y55421D02*
X37992Y58492D01*
Y71008D01*
X29500Y79500D02*
X37992Y71008D01*
X36890Y55390D02*
X40157Y58657D01*
Y72843D01*
X37500Y75500D02*
X40157Y72843D01*
X34563Y78937D02*
X43701D01*
X46260Y76378D01*
Y65642D02*
Y76378D01*
X25079Y52787D02*
Y70421D01*
X20894Y74606D02*
X25079Y70421D01*
X15945Y76181D02*
X21654D01*
X27000Y70835D01*
Y60594D02*
Y70835D01*
X21142Y80236D02*
Y84543D01*
Y80236D02*
X25628Y75750D01*
X25750D01*
X29000Y57032D02*
Y69500D01*
X0Y58071D02*
Y60000D01*
Y58071D02*
X8071Y50000D01*
X10051D01*
X4500Y65185D02*
Y72000D01*
Y65185D02*
X8500Y61185D01*
Y59000D02*
Y61185D01*
X6000Y66244D02*
Y80000D01*
Y66244D02*
X9252Y62992D01*
X8918Y65098D02*
Y68918D01*
Y65098D02*
X9824Y64192D01*
X10489D01*
X18898Y-25598D02*
Y-8858D01*
X16142Y-6102D02*
X18898Y-8858D01*
X20276Y-18386D02*
Y-9055D01*
X25787Y-3543D01*
X38858Y117457D02*
Y121207D01*
X36179Y123886D02*
X38858Y121207D01*
X36179Y123886D02*
Y125000D01*
X40773Y-15773D02*
X43600Y-18600D01*
X50490D02*
X54921Y-23031D01*
X43600Y-18600D02*
X50490D01*
X20276Y-18386D02*
X24921Y-23031D01*
X18898Y-25598D02*
X21500Y-28200D01*
X29753D01*
X34921Y-23031D01*
D27*
X43386Y28673D02*
X44949D01*
X46063Y27559D01*
Y24563D02*
Y27559D01*
X44500Y23000D02*
X46063Y24563D01*
X39764Y110630D02*
X44291Y115157D01*
X39764Y93898D02*
Y110630D01*
X44291Y115157D02*
Y116929D01*
X25591Y159646D02*
X27441Y157795D01*
X21579Y159646D02*
X25591D01*
X27441Y153984D02*
Y157795D01*
X19173Y117457D02*
X21142D01*
X14039D02*
X19173D01*
X12205Y119291D02*
X14039Y117457D01*
X16732Y134821D02*
Y140157D01*
Y134821D02*
X19000D01*
X14500D02*
X16732D01*
X46000Y137047D02*
X51000Y142047D01*
X21457Y144882D02*
X22075Y145500D01*
X59842Y142567D02*
Y148622D01*
X59646Y142370D02*
X59842Y142567D01*
X59646Y136370D02*
X60000Y136016D01*
Y110000D02*
Y136016D01*
X50984Y151575D02*
X51181D01*
X46000Y146591D02*
X50984Y151575D01*
X46000Y142953D02*
Y146591D01*
X24000Y137453D02*
Y141000D01*
X26000Y143000D01*
X35118Y147835D02*
X40000Y142953D01*
X14500Y131179D02*
X19000D01*
X23632D01*
X24000Y131547D01*
Y137453D02*
X26868D01*
X29500Y134821D01*
X40000Y137047D02*
X45906Y142953D01*
X46000D01*
X51000Y142047D02*
Y144679D01*
Y139821D02*
Y142047D01*
X24882Y153984D02*
X27441D01*
X35118Y147835D02*
Y151984D01*
X53500Y-7000D02*
Y-2000D01*
X53000Y97000D02*
Y98000D01*
Y97000D02*
X60000Y90000D01*
X53000Y62500D02*
Y84500D01*
Y97000D01*
X51000Y144679D02*
X59252Y152931D01*
Y163730D01*
X43386Y154681D02*
X51256Y162551D01*
X52953D01*
X33937Y164130D02*
Y166780D01*
X16614Y154681D02*
X21579Y159646D01*
X38421D02*
X43386Y154681D01*
X33937Y164130D02*
X38421Y159646D01*
X22075Y145500D02*
X29894D01*
X34000Y141394D01*
X28346Y-591D02*
X29823Y886D01*
Y4177D01*
X25591Y159646D02*
X32874D01*
X38421D01*
X52953Y168551D02*
X53984Y167520D01*
X59105D01*
X59252Y167372D01*
X9055Y158465D02*
X10236Y159646D01*
X11649D01*
X16614Y154681D01*
X46000Y135173D02*
Y137047D01*
X44094Y133268D02*
X46000Y135173D01*
X34000Y135882D02*
Y141394D01*
Y135882D02*
X36614Y133268D01*
X44094D01*
D28*
X21898Y128000D02*
X26000D01*
X21850Y127953D02*
X21898Y128000D01*
X44321Y13588D02*
Y18500D01*
X29823Y4177D02*
Y4268D01*
X26000Y128000D02*
X28179Y125821D01*
Y125000D02*
Y125821D01*
X19906Y4405D02*
Y6169D01*
X12500Y71500D02*
X14179D01*
X10500Y73500D02*
X12500Y71500D01*
X45079Y80356D02*
Y84055D01*
X44321Y13588D02*
X45177Y12732D01*
X16000Y500D02*
X19906Y4405D01*
X49606Y71457D02*
Y75590D01*
X36890Y84543D02*
X38858D01*
Y81142D02*
Y84543D01*
Y81142D02*
X39764Y80237D01*
X44960D01*
X49606Y75590D01*
X44960Y80237D02*
X45079Y80356D01*
X17300Y165500D02*
X24783D01*
X26063Y166780D01*
X35217Y165500D02*
X42700D01*
X33937Y166780D02*
X35217Y165500D01*
D29*
X22126Y155559D02*
D03*
X37874D02*
D03*
D30*
X17500Y165500D02*
D03*
X42500D02*
D03*
D31*
X4921Y-23031D02*
D03*
X14921D02*
D03*
X24921D02*
D03*
X34921D02*
D03*
X44921D02*
D03*
X54921D02*
D03*
X4921Y-13032D02*
D03*
X14921D02*
D03*
X24921D02*
D03*
X34921D02*
D03*
X44921D02*
D03*
X54921D02*
D03*
X59984Y109984D02*
D03*
Y99984D02*
D03*
Y89984D02*
D03*
Y79984D02*
D03*
Y69984D02*
D03*
Y59984D02*
D03*
Y49984D02*
D03*
Y39984D02*
D03*
Y29984D02*
D03*
Y19984D02*
D03*
Y9984D02*
D03*
Y-16D02*
D03*
X-16D02*
D03*
Y9984D02*
D03*
Y19984D02*
D03*
Y29984D02*
D03*
Y39984D02*
D03*
Y49984D02*
D03*
Y59984D02*
D03*
Y69984D02*
D03*
Y79984D02*
D03*
Y89984D02*
D03*
Y99984D02*
D03*
Y109984D02*
D03*
D32*
X36496Y33004D02*
D03*
X32165D02*
D03*
X27835D02*
D03*
X23504D02*
D03*
X36496Y37335D02*
D03*
X32165D02*
D03*
X27835D02*
D03*
X23504D02*
D03*
X36496Y41665D02*
D03*
X32165D02*
D03*
X27835D02*
D03*
X23504D02*
D03*
X36496Y45996D02*
D03*
X32165D02*
D03*
X27835D02*
D03*
X23504D02*
D03*
X23500Y17000D02*
D03*
X39764Y93898D02*
D03*
X44291Y116929D02*
D03*
X12205Y119291D02*
D03*
X21850Y127953D02*
D03*
X16732Y140157D02*
D03*
X21457Y144882D02*
D03*
X9055Y158465D02*
D03*
X50394Y132480D02*
D03*
X59842Y148622D02*
D03*
X51181Y151575D02*
D03*
X28346Y-591D02*
D03*
X8500Y4500D02*
D03*
X41500Y75500D02*
D03*
X37500D02*
D03*
X10000Y34000D02*
D03*
Y46000D02*
D03*
X49500Y58500D02*
D03*
Y36000D02*
D03*
X10000Y41500D02*
D03*
X44500Y23000D02*
D03*
X26000Y143000D02*
D03*
X49606Y62402D02*
D03*
X8000Y28000D02*
D03*
X22000Y91000D02*
D03*
X26000D02*
D03*
X28500Y97500D02*
D03*
X19173Y78327D02*
D03*
X34000Y58500D02*
D03*
X22500Y69500D02*
D03*
X51500Y45500D02*
D03*
X48953Y42453D02*
D03*
X53000Y98000D02*
D03*
X53500Y-7000D02*
D03*
X44500Y58500D02*
D03*
X33500Y70000D02*
D03*
X25750Y75750D02*
D03*
X29500Y70000D02*
D03*
X53000Y84500D02*
D03*
X10500Y73500D02*
D03*
X8918Y68918D02*
D03*
X10184Y115184D02*
D03*
X21500Y96000D02*
D03*
X29500Y104000D02*
D03*
X21500Y103500D02*
D03*
X46500Y-1000D02*
D03*
X43701Y-5315D02*
D03*
X35500Y-3000D02*
D03*
X33500Y19500D02*
D03*
X53500Y-2000D02*
D03*
X53000Y62500D02*
D03*
X8268Y87205D02*
D03*
X49606Y71457D02*
D03*
X45079Y84055D02*
D03*
X49606Y8268D02*
D03*
X8268Y0D02*
D03*
X22047Y-1772D02*
D03*
X16000Y500D02*
D03*
X40157Y11811D02*
D03*
X32874Y159646D02*
D03*
M02*
