G04 Layer_Color=8388736*
%FSLAX25Y25*%
%MOIN*%
G70*
G01*
G75*
%ADD49O,0.04343X0.01784*%
%ADD50R,0.04540X0.01784*%
%ADD51O,0.01784X0.04343*%
%ADD52R,0.01784X0.04540*%
%ADD53R,0.19894X0.19894*%
%ADD54R,0.06706X0.06706*%
%ADD55R,0.07099X0.06300*%
%ADD56R,0.02300X0.06800*%
%ADD57R,0.05918X0.05328*%
%ADD58R,0.06942X0.01902*%
%ADD59R,0.01902X0.06942*%
%ADD60R,0.04300X0.03800*%
%ADD61R,0.04343X0.03556*%
%ADD62R,0.04737X0.03950*%
%ADD63R,0.02769X0.02769*%
%ADD64R,0.02769X0.02769*%
%ADD65C,0.03300*%
%ADD66R,0.03800X0.08800*%
%ADD67C,0.06800*%
%ADD68C,0.03162*%
D49*
X43386Y28673D02*
D03*
Y50327D02*
D03*
X16614D02*
D03*
Y28673D02*
D03*
D50*
X43287Y30642D02*
D03*
Y32610D02*
D03*
Y34579D02*
D03*
Y36547D02*
D03*
Y38516D02*
D03*
Y40484D02*
D03*
Y42453D02*
D03*
Y44421D02*
D03*
Y46390D02*
D03*
Y48358D02*
D03*
X16713D02*
D03*
Y46390D02*
D03*
Y44421D02*
D03*
Y42453D02*
D03*
Y40484D02*
D03*
Y38516D02*
D03*
Y36547D02*
D03*
Y34579D02*
D03*
Y32610D02*
D03*
Y30642D02*
D03*
D51*
X40827Y52886D02*
D03*
X19173D02*
D03*
Y26114D02*
D03*
X40827D02*
D03*
D52*
X38858Y52787D02*
D03*
X36890D02*
D03*
X34921D02*
D03*
X32953D02*
D03*
X30984D02*
D03*
X29016D02*
D03*
X27047D02*
D03*
X25079D02*
D03*
X23110D02*
D03*
X21142D02*
D03*
Y26213D02*
D03*
X23110D02*
D03*
X25079D02*
D03*
X27047D02*
D03*
X29016D02*
D03*
X30984D02*
D03*
X32953D02*
D03*
X34921D02*
D03*
X36890D02*
D03*
X38858D02*
D03*
D53*
X30000Y39500D02*
D03*
D54*
X26063Y166780D02*
D03*
X33937D02*
D03*
D55*
X16614Y154681D02*
D03*
X43386D02*
D03*
D56*
X35118Y153984D02*
D03*
X24882D02*
D03*
X27441D02*
D03*
X32559D02*
D03*
X30000D02*
D03*
D57*
X45177Y12732D02*
D03*
Y4268D02*
D03*
X29823D02*
D03*
Y12732D02*
D03*
D58*
X13543Y111827D02*
D03*
Y109858D02*
D03*
Y107890D02*
D03*
Y105921D02*
D03*
Y103953D02*
D03*
Y101984D02*
D03*
Y100016D02*
D03*
Y98047D02*
D03*
Y96079D02*
D03*
Y94110D02*
D03*
Y92142D02*
D03*
Y90173D02*
D03*
X46457D02*
D03*
Y92142D02*
D03*
Y94110D02*
D03*
Y96079D02*
D03*
Y98047D02*
D03*
Y100016D02*
D03*
Y101984D02*
D03*
Y103953D02*
D03*
Y105921D02*
D03*
Y107890D02*
D03*
Y109858D02*
D03*
Y111827D02*
D03*
D59*
X19173Y84543D02*
D03*
X21142D02*
D03*
X23110D02*
D03*
X25079D02*
D03*
X27047D02*
D03*
X29016D02*
D03*
X30984D02*
D03*
X32953D02*
D03*
X34921D02*
D03*
X36890D02*
D03*
X38858D02*
D03*
X40827D02*
D03*
Y117457D02*
D03*
X38858D02*
D03*
X36890D02*
D03*
X34921D02*
D03*
X32953D02*
D03*
X30984D02*
D03*
X29016D02*
D03*
X27047D02*
D03*
X25079D02*
D03*
X23110D02*
D03*
X21142D02*
D03*
X19173D02*
D03*
D60*
X52953Y162551D02*
D03*
Y168551D02*
D03*
X40000Y137000D02*
D03*
Y143000D02*
D03*
X12402Y60583D02*
D03*
Y66583D02*
D03*
X59646Y143157D02*
D03*
Y137157D02*
D03*
D61*
X46000Y137047D02*
D03*
Y142953D02*
D03*
X24000Y137453D02*
D03*
Y131547D02*
D03*
D62*
X14000Y10500D02*
D03*
Y6169D02*
D03*
X19906Y10500D02*
D03*
Y6169D02*
D03*
D63*
X28179Y125000D02*
D03*
X31821D02*
D03*
X40679Y18500D02*
D03*
X44321D02*
D03*
X14321Y71850D02*
D03*
X17963D02*
D03*
X47821Y125000D02*
D03*
X44179D02*
D03*
X39821D02*
D03*
X36179D02*
D03*
D64*
X59252Y167372D02*
D03*
Y163730D02*
D03*
X29500Y131179D02*
D03*
Y134821D02*
D03*
X51000Y136179D02*
D03*
Y139821D02*
D03*
X14500Y134821D02*
D03*
Y131179D02*
D03*
X19000Y134821D02*
D03*
Y131179D02*
D03*
X18500Y63179D02*
D03*
Y66821D02*
D03*
D65*
X22126Y155559D02*
D03*
X37874D02*
D03*
D66*
X17500Y165500D02*
D03*
X42500D02*
D03*
D67*
X4921Y-23031D02*
D03*
X14921D02*
D03*
X24921D02*
D03*
X34921D02*
D03*
X44921D02*
D03*
X54921D02*
D03*
X4921Y-13032D02*
D03*
X14921D02*
D03*
X24921D02*
D03*
X34921D02*
D03*
X44921D02*
D03*
X54921D02*
D03*
X59984Y109984D02*
D03*
Y99984D02*
D03*
Y89984D02*
D03*
Y79984D02*
D03*
Y69984D02*
D03*
Y59984D02*
D03*
Y49984D02*
D03*
Y39984D02*
D03*
Y29984D02*
D03*
Y19984D02*
D03*
Y9984D02*
D03*
Y-16D02*
D03*
X-16D02*
D03*
Y9984D02*
D03*
Y19984D02*
D03*
Y29984D02*
D03*
Y39984D02*
D03*
Y49984D02*
D03*
Y59984D02*
D03*
Y69984D02*
D03*
Y79984D02*
D03*
Y89984D02*
D03*
Y99984D02*
D03*
Y109984D02*
D03*
D68*
X36496Y33004D02*
D03*
X32165D02*
D03*
X27835D02*
D03*
X23504D02*
D03*
X36496Y37335D02*
D03*
X32165D02*
D03*
X27835D02*
D03*
X23504D02*
D03*
X36496Y41665D02*
D03*
X32165D02*
D03*
X27835D02*
D03*
X23504D02*
D03*
X36496Y45996D02*
D03*
X32165D02*
D03*
X27835D02*
D03*
X23504D02*
D03*
M02*
