M48
;Layer_Color=9474304
;FILE_FORMAT=2:5
INCH,TZ
;TYPE=PLATED
T1F00S00C0.01181
T3F00S00C0.02500
T4F00S00C0.03000
%
T01
X8268Y0
X8500Y4500
X16000Y500
X22047Y-1772
X28346Y-591
X35500Y-3000
X43701Y-5315
X46500Y-1000
X53500Y-2000
Y-7000
X49606Y8268
X40157Y11811
X33500Y19500
X23500Y17000
X23504Y33004
X27835
X32165
X36496
Y37335
X32165
X27835
X23504
Y41665
X27835
Y45996
X23504
X32165
Y41665
X36496
Y45996
X34000Y58500
X44500
X49500
X49606Y62402
X53000Y62500
X51500Y45500
X48953Y42453
X49500Y36000
X44500Y23000
X8000Y28000
X10000Y34000
Y41500
Y46000
X8918Y68918
X22500Y69500
X29500Y70000
X33500
X37500Y75500
X41500
X45079Y84055
X53000Y84500
Y98000
X39764Y93898
X28500Y97500
X29500Y104000
X21500Y103500
Y96000
X22000Y91000
X26000
X25750Y75750
X19173Y78327
X10500Y73500
X8268Y87205
X10184Y115184
X12205Y119291
X21850Y127953
X16732Y140157
X21457Y144882
X26000Y143000
X32874Y159646
X9055Y158465
X51181Y151575
X59842Y148622
X50394Y132480
X44291Y116929
X49606Y71457
T03
X22126Y155559
X37874
T04
X4921Y-23031
X14921
X24921
X34921
X44921
X54921
Y-13032
X44921
X34921
X24921
X14921
X4921
X-16Y-16
Y9984
Y19984
Y29984
Y39984
Y49984
Y59984
Y69984
X59984
Y59984
Y49984
Y39984
Y29984
Y19984
Y9984
Y-16
Y79984
Y89984
Y99984
Y109984
X-16
Y99984
Y89984
Y79984
M30
