G04 Layer_Physical_Order=2*
G04 Layer_Color=16711680*
%FSLAX25Y25*%
%MOIN*%
G70*
G01*
G75*
%ADD22R,0.03543X0.02756*%
%ADD24R,0.01969X0.01969*%
%ADD25R,0.01969X0.01969*%
%ADD26C,0.00600*%
%ADD27C,0.01000*%
%ADD28C,0.00800*%
%ADD29C,0.02500*%
%ADD30R,0.03000X0.08000*%
%ADD31C,0.06000*%
%ADD32C,0.02362*%
%ADD33R,0.05000X0.03000*%
%ADD34R,0.02165X0.05709*%
%ADD35R,0.02165X0.05709*%
%ADD36R,0.03937X0.04331*%
%ADD37R,0.02756X0.03543*%
%ADD38R,0.13583X0.06102*%
%ADD39R,0.04331X0.06102*%
%ADD40R,0.04331X0.06102*%
%ADD41R,0.03500X0.03500*%
%ADD42R,0.03500X0.03500*%
G36*
X64311Y-41398D02*
X-4312D01*
Y173878D01*
X64311D01*
Y-41398D01*
D02*
G37*
%LPC*%
G36*
X44591Y170091D02*
X43000D01*
Y166000D01*
X44591D01*
Y170091D01*
D02*
G37*
G36*
X19590D02*
X18000D01*
Y166000D01*
X19590D01*
Y170091D01*
D02*
G37*
G36*
X42000D02*
X40409D01*
Y166000D01*
X42000D01*
Y170091D01*
D02*
G37*
G36*
X17000D02*
X15409D01*
Y166000D01*
X17000D01*
Y170091D01*
D02*
G37*
G36*
X44591Y165000D02*
X43000D01*
Y160909D01*
X44591D01*
Y165000D01*
D02*
G37*
G36*
X42000D02*
X40409D01*
Y160909D01*
X42000D01*
Y165000D01*
D02*
G37*
G36*
X19590D02*
X18000D01*
Y160909D01*
X19590D01*
Y165000D01*
D02*
G37*
G36*
X17000D02*
X15409D01*
Y160909D01*
X17000D01*
Y165000D01*
D02*
G37*
G36*
X37903Y169301D02*
X23120D01*
Y161998D01*
X24760D01*
X24911Y161635D01*
X23059Y159783D01*
X15425D01*
X12604Y162604D01*
X12240Y162847D01*
X11811Y162933D01*
X11811Y162933D01*
X7874D01*
X7874Y162933D01*
X7445Y162847D01*
X7081Y162604D01*
X7081Y162604D01*
X4467Y159990D01*
X4224Y159626D01*
X4138Y159197D01*
X4138Y159197D01*
Y155187D01*
X3577D01*
Y148278D01*
X6943D01*
Y155187D01*
X6381D01*
Y158732D01*
X8339Y160689D01*
X11347D01*
X13374Y158661D01*
X11947Y157234D01*
X11704Y156870D01*
X11619Y156441D01*
X11619Y156441D01*
Y155187D01*
X11057D01*
Y148278D01*
X14423D01*
Y155187D01*
X13862D01*
Y155976D01*
X15425Y157540D01*
X21052D01*
X21171Y157146D01*
X20792Y156893D01*
X20383Y156281D01*
X20240Y155559D01*
X20383Y154837D01*
X20792Y154225D01*
X21404Y153816D01*
X22126Y153673D01*
X22848Y153816D01*
X23460Y154225D01*
X23869Y154837D01*
X24012Y155559D01*
X23895Y156147D01*
X24258Y156341D01*
X29390Y151209D01*
Y142726D01*
X28041D01*
X27816Y143000D01*
X27678Y143695D01*
X27284Y144284D01*
X26695Y144678D01*
X26000Y144816D01*
X25305Y144678D01*
X24716Y144284D01*
X24322Y143695D01*
X24206Y143113D01*
X24184Y143000D01*
X23837Y142726D01*
X22578D01*
Y143489D01*
X22741Y143598D01*
X23134Y144187D01*
X23273Y144882D01*
X23134Y145577D01*
X22741Y146166D01*
X22152Y146560D01*
X21457Y146698D01*
X20762Y146560D01*
X20173Y146166D01*
X19779Y145577D01*
X19641Y144882D01*
X19779Y144187D01*
X20173Y143598D01*
X20335Y143489D01*
Y142726D01*
X18691D01*
Y136319D01*
X16924Y134551D01*
X16680Y134187D01*
X16595Y133758D01*
X16595Y133758D01*
Y127397D01*
X15563D01*
Y122697D01*
X20263D01*
Y126433D01*
X20612Y126577D01*
X20926Y126360D01*
Y124500D01*
X20926Y124500D01*
X21011Y124071D01*
X21254Y123707D01*
X23128Y121833D01*
Y119069D01*
X27872D01*
Y119378D01*
X47535D01*
X49914Y117000D01*
X47356Y114443D01*
X37084D01*
Y114906D01*
X33915D01*
Y114443D01*
X32585D01*
Y114906D01*
X31686D01*
X31500Y114943D01*
X31314Y114906D01*
X29416D01*
Y114443D01*
X28084D01*
Y114906D01*
X24915D01*
Y114158D01*
X24849Y114114D01*
X24849Y114114D01*
X21535Y110801D01*
X19084D01*
Y111264D01*
X15915D01*
Y109681D01*
X14723Y108488D01*
X14480Y108124D01*
X14394Y107695D01*
X14394Y107695D01*
Y105100D01*
X12416D01*
Y104122D01*
X12000D01*
X11571Y104036D01*
X11207Y103793D01*
X11207Y103793D01*
X8819Y101406D01*
X7416D01*
Y98237D01*
X10584D01*
Y99998D01*
X12052Y101466D01*
X12416Y101315D01*
Y100900D01*
X16876D01*
X17027Y100536D01*
X16591Y100100D01*
X12416D01*
Y97059D01*
X12243Y96918D01*
X10584D01*
Y97764D01*
X7416D01*
Y94595D01*
X10584D01*
Y95082D01*
X11863D01*
X12416Y94529D01*
Y90900D01*
X18616D01*
Y92082D01*
X19620D01*
X20270Y91432D01*
X20184Y91000D01*
X20322Y90305D01*
X20716Y89716D01*
X21305Y89322D01*
X22000Y89184D01*
X22695Y89322D01*
X23284Y89716D01*
X23678Y90305D01*
X23758Y90707D01*
X23799Y90916D01*
X24201D01*
X24242Y90707D01*
X24322Y90305D01*
X24716Y89716D01*
X25305Y89322D01*
X26000Y89184D01*
X26695Y89322D01*
X27284Y89716D01*
X27678Y90305D01*
X27816Y91000D01*
X27730Y91432D01*
X33380Y97082D01*
X42400D01*
Y95900D01*
X47944D01*
X48094Y95536D01*
X47658Y95100D01*
X42400D01*
Y90900D01*
X48600D01*
Y93158D01*
X50721Y95279D01*
X50942Y95610D01*
X51020Y96000D01*
Y97049D01*
X51413Y97169D01*
X51716Y96716D01*
X52305Y96322D01*
X53000Y96184D01*
X53695Y96322D01*
X54284Y96716D01*
X54678Y97305D01*
X54816Y98000D01*
X54678Y98695D01*
X54284Y99284D01*
X54122Y99393D01*
Y115500D01*
X54122Y115500D01*
X54036Y115929D01*
X53793Y116293D01*
X52293Y117793D01*
X52293Y117793D01*
X48793Y121293D01*
X48429Y121536D01*
X48000Y121622D01*
X48000Y121622D01*
X34962D01*
X34586Y121666D01*
Y126366D01*
X33204D01*
X33029Y126628D01*
X33029Y126628D01*
X31635Y128022D01*
X31708Y128416D01*
X32047D01*
Y131585D01*
X31584D01*
Y135424D01*
X33277D01*
Y142726D01*
X31633D01*
Y151673D01*
X31633Y151673D01*
X31548Y152102D01*
X31305Y152466D01*
X31305Y152466D01*
X25110Y158661D01*
X28447Y161998D01*
X37903D01*
Y169301D01*
D02*
G37*
G36*
X37874Y157445D02*
X37152Y157302D01*
X36540Y156893D01*
X36131Y156281D01*
X35988Y155559D01*
X36131Y154837D01*
X36540Y154225D01*
X37152Y153816D01*
X37874Y153673D01*
X38596Y153816D01*
X39208Y154225D01*
X39617Y154837D01*
X39760Y155559D01*
X39617Y156281D01*
X39208Y156893D01*
X38596Y157302D01*
X37874Y157445D01*
D02*
G37*
G36*
X51181Y153391D02*
X50486Y153253D01*
X49897Y152859D01*
X49503Y152270D01*
X49365Y151575D01*
X49503Y150880D01*
X49897Y150291D01*
X50486Y149897D01*
X51181Y149759D01*
X51876Y149897D01*
X52465Y150291D01*
X52574Y150453D01*
X56228D01*
X58032Y148650D01*
X58026Y148622D01*
X58165Y147927D01*
X58558Y147338D01*
X59148Y146944D01*
X59842Y146806D01*
X60537Y146944D01*
X61127Y147338D01*
X61520Y147927D01*
X61659Y148622D01*
X61520Y149317D01*
X61127Y149906D01*
X60537Y150300D01*
X59842Y150438D01*
X59487Y150367D01*
X57486Y152368D01*
X57122Y152611D01*
X56693Y152696D01*
X56693Y152696D01*
X52574D01*
X52465Y152859D01*
X51876Y153253D01*
X51181Y153391D01*
D02*
G37*
G36*
X6943Y146722D02*
X3577D01*
Y139813D01*
X4736D01*
Y137084D01*
X4273D01*
Y133915D01*
X4736D01*
Y132585D01*
X4273D01*
Y129416D01*
X4736D01*
Y127872D01*
X3569D01*
Y123128D01*
X7525D01*
Y127872D01*
X6980D01*
Y129416D01*
X7442D01*
Y132585D01*
X6980D01*
Y133915D01*
X7442D01*
Y137084D01*
X6980D01*
Y142670D01*
X6943Y142856D01*
Y146722D01*
D02*
G37*
G36*
X13431Y127872D02*
X9475D01*
Y123128D01*
X10298D01*
X10437Y122735D01*
X3851Y116149D01*
X3652Y115851D01*
X3582Y115500D01*
Y111734D01*
X3189Y111655D01*
X3129Y111800D01*
X2552Y112552D01*
X1800Y113129D01*
X924Y113492D01*
X-16Y113615D01*
X-955Y113492D01*
X-1831Y113129D01*
X-2583Y112552D01*
X-3160Y111800D01*
X-3523Y110924D01*
X-3647Y109984D01*
X-3523Y109045D01*
X-3160Y108169D01*
X-2583Y107417D01*
X-1831Y106840D01*
X-955Y106477D01*
X-16Y106353D01*
X924Y106477D01*
X1800Y106840D01*
X2552Y107417D01*
X3129Y108169D01*
X3189Y108313D01*
X3582Y108235D01*
Y101734D01*
X3189Y101655D01*
X3129Y101800D01*
X2552Y102552D01*
X1800Y103129D01*
X924Y103492D01*
X-16Y103615D01*
X-955Y103492D01*
X-1831Y103129D01*
X-2583Y102552D01*
X-3160Y101800D01*
X-3523Y100924D01*
X-3647Y99984D01*
X-3523Y99045D01*
X-3160Y98169D01*
X-2583Y97417D01*
X-1831Y96840D01*
X-955Y96477D01*
X-16Y96353D01*
X924Y96477D01*
X1800Y96840D01*
X2552Y97417D01*
X3129Y98169D01*
X3189Y98313D01*
X3582Y98235D01*
Y91734D01*
X3189Y91655D01*
X3129Y91800D01*
X2552Y92552D01*
X1800Y93129D01*
X924Y93492D01*
X-16Y93615D01*
X-955Y93492D01*
X-1831Y93129D01*
X-2583Y92552D01*
X-3160Y91800D01*
X-3523Y90924D01*
X-3647Y89984D01*
X-3523Y89044D01*
X-3160Y88169D01*
X-2583Y87417D01*
X-1831Y86840D01*
X-955Y86477D01*
X-16Y86353D01*
X924Y86477D01*
X1800Y86840D01*
X2552Y87417D01*
X3129Y88169D01*
X3189Y88313D01*
X3582Y88235D01*
Y81734D01*
X3189Y81655D01*
X3129Y81800D01*
X2552Y82552D01*
X1800Y83129D01*
X924Y83492D01*
X-16Y83615D01*
X-955Y83492D01*
X-1831Y83129D01*
X-2583Y82552D01*
X-3160Y81800D01*
X-3523Y80924D01*
X-3647Y79984D01*
X-3523Y79045D01*
X-3160Y78169D01*
X-2583Y77417D01*
X-1831Y76840D01*
X-955Y76477D01*
X-16Y76353D01*
X924Y76477D01*
X1800Y76840D01*
X2552Y77417D01*
X3129Y78169D01*
X3189Y78313D01*
X3582Y78235D01*
Y71734D01*
X3189Y71655D01*
X3129Y71800D01*
X2552Y72552D01*
X1800Y73129D01*
X924Y73492D01*
X-16Y73615D01*
X-955Y73492D01*
X-1831Y73129D01*
X-2583Y72552D01*
X-3160Y71800D01*
X-3523Y70924D01*
X-3647Y69984D01*
X-3523Y69045D01*
X-3160Y68169D01*
X-2583Y67417D01*
X-1831Y66840D01*
X-955Y66477D01*
X-16Y66353D01*
X924Y66477D01*
X1800Y66840D01*
X2552Y67417D01*
X3129Y68169D01*
X3189Y68313D01*
X3582Y68235D01*
Y61734D01*
X3189Y61655D01*
X3129Y61800D01*
X2552Y62552D01*
X1800Y63129D01*
X924Y63492D01*
X-16Y63615D01*
X-955Y63492D01*
X-1831Y63129D01*
X-2583Y62552D01*
X-3160Y61800D01*
X-3523Y60924D01*
X-3647Y59984D01*
X-3523Y59044D01*
X-3160Y58169D01*
X-2583Y57417D01*
X-1831Y56840D01*
X-955Y56477D01*
X-16Y56353D01*
X924Y56477D01*
X1800Y56840D01*
X2552Y57417D01*
X3129Y58169D01*
X3189Y58313D01*
X3582Y58235D01*
Y51734D01*
X3189Y51655D01*
X3129Y51800D01*
X2552Y52552D01*
X1800Y53129D01*
X924Y53492D01*
X-16Y53615D01*
X-955Y53492D01*
X-1831Y53129D01*
X-2583Y52552D01*
X-3160Y51800D01*
X-3523Y50924D01*
X-3647Y49984D01*
X-3523Y49044D01*
X-3160Y48169D01*
X-2583Y47417D01*
X-1831Y46840D01*
X-955Y46477D01*
X-16Y46353D01*
X924Y46477D01*
X1800Y46840D01*
X2552Y47417D01*
X3129Y48169D01*
X3189Y48313D01*
X3582Y48235D01*
Y41734D01*
X3189Y41655D01*
X3129Y41800D01*
X2552Y42552D01*
X1800Y43129D01*
X924Y43492D01*
X-16Y43615D01*
X-955Y43492D01*
X-1831Y43129D01*
X-2583Y42552D01*
X-3160Y41800D01*
X-3523Y40924D01*
X-3647Y39984D01*
X-3523Y39044D01*
X-3160Y38169D01*
X-2583Y37417D01*
X-1831Y36840D01*
X-955Y36477D01*
X-16Y36353D01*
X924Y36477D01*
X1800Y36840D01*
X2552Y37417D01*
X3129Y38169D01*
X3189Y38313D01*
X3582Y38235D01*
Y31734D01*
X3189Y31655D01*
X3129Y31800D01*
X2552Y32552D01*
X1800Y33129D01*
X924Y33492D01*
X-16Y33615D01*
X-955Y33492D01*
X-1831Y33129D01*
X-2583Y32552D01*
X-3160Y31800D01*
X-3523Y30924D01*
X-3647Y29984D01*
X-3523Y29044D01*
X-3160Y28169D01*
X-2583Y27417D01*
X-1831Y26840D01*
X-955Y26477D01*
X-16Y26353D01*
X924Y26477D01*
X1800Y26840D01*
X2552Y27417D01*
X3129Y28169D01*
X3189Y28313D01*
X3582Y28235D01*
Y27500D01*
X3652Y27149D01*
X3851Y26851D01*
X5851Y24851D01*
X6149Y24652D01*
X6500Y24582D01*
X9500D01*
X9851Y24652D01*
X10149Y24851D01*
X10719Y25421D01*
X11082Y25270D01*
Y20556D01*
X11152Y20204D01*
X11351Y19907D01*
X11387Y19871D01*
Y18000D01*
X12053D01*
Y16669D01*
X11387D01*
Y13500D01*
X12053D01*
Y12084D01*
X11236D01*
Y8916D01*
X13951D01*
X14114Y8522D01*
X11010Y5418D01*
X10029D01*
X9784Y5784D01*
X9195Y6178D01*
X8718Y6273D01*
X8588Y6700D01*
X9828Y7940D01*
X10027Y8237D01*
X10097Y8588D01*
Y8916D01*
X10763D01*
Y12084D01*
X7594D01*
Y8916D01*
X7694D01*
X7845Y8552D01*
X4863Y5570D01*
X4664Y5272D01*
X4594Y4921D01*
Y2165D01*
X4664Y1814D01*
X4863Y1517D01*
X6470Y-90D01*
X6590Y-695D01*
X6984Y-1284D01*
X7573Y-1678D01*
X8268Y-1816D01*
X8963Y-1678D01*
X9552Y-1284D01*
X9945Y-695D01*
X10084Y0D01*
X9945Y695D01*
X9552Y1284D01*
X8963Y1678D01*
X8268Y1816D01*
X7573Y1678D01*
X7407Y1567D01*
X6429Y2545D01*
Y3762D01*
X6822Y3805D01*
X7216Y3216D01*
X7805Y2822D01*
X8500Y2684D01*
X9195Y2822D01*
X9784Y3216D01*
X10029Y3582D01*
X11390D01*
X11741Y3652D01*
X12039Y3851D01*
X17149Y8961D01*
X17348Y9259D01*
X17418Y9610D01*
Y20500D01*
X17348Y20851D01*
X17149Y21149D01*
X15776Y22522D01*
X15939Y22916D01*
X16263D01*
Y26085D01*
X15801D01*
Y27415D01*
X16263D01*
Y30584D01*
X15801D01*
Y31916D01*
X16263D01*
Y34582D01*
X16736D01*
Y31916D01*
X19906D01*
Y35085D01*
X19443D01*
Y36415D01*
X19906D01*
Y39584D01*
X16736D01*
Y36418D01*
X16263D01*
Y39584D01*
X15801D01*
Y40916D01*
X16263D01*
Y44085D01*
X15801D01*
Y45415D01*
X16263D01*
Y48584D01*
X13094D01*
Y47918D01*
X11000D01*
X10649Y47848D01*
X10463Y47724D01*
X10000Y47816D01*
X9305Y47678D01*
X8716Y47284D01*
X8322Y46695D01*
X8184Y46000D01*
X8322Y45305D01*
X8612Y44872D01*
X8568Y44767D01*
X8270Y44568D01*
X7281Y43579D01*
X6918Y43730D01*
Y50620D01*
X8649Y52351D01*
X11538Y55240D01*
X11931Y55077D01*
Y52254D01*
X17068D01*
Y57785D01*
X11931D01*
Y57418D01*
X11500D01*
X11149Y57348D01*
X10851Y57149D01*
X9281Y55579D01*
X8918Y55730D01*
Y64500D01*
X8848Y64851D01*
X8649Y65149D01*
X6918Y66880D01*
Y113120D01*
X7880Y114082D01*
X8778D01*
X8900Y113900D01*
X9489Y113506D01*
X10184Y113368D01*
X10879Y113506D01*
X11468Y113900D01*
X11862Y114489D01*
X12000Y115184D01*
X11862Y115879D01*
X11468Y116468D01*
X10879Y116862D01*
X10184Y117000D01*
X9489Y116862D01*
X8900Y116468D01*
X8532Y115918D01*
X7500D01*
X7149Y115848D01*
X6851Y115649D01*
X5781Y114579D01*
X5418Y114730D01*
Y115120D01*
X12102Y121804D01*
X12301Y122102D01*
X12370Y122453D01*
Y123128D01*
X13431D01*
Y127872D01*
D02*
G37*
G36*
X59984Y113615D02*
X59044Y113492D01*
X58169Y113129D01*
X57417Y112552D01*
X56840Y111800D01*
X56477Y110924D01*
X56353Y109984D01*
X56477Y109045D01*
X56840Y108169D01*
X57417Y107417D01*
X58169Y106840D01*
X59044Y106477D01*
X59984Y106353D01*
X60924Y106477D01*
X61800Y106840D01*
X62552Y107417D01*
X63129Y108169D01*
X63492Y109045D01*
X63615Y109984D01*
X63492Y110924D01*
X63129Y111800D01*
X62552Y112552D01*
X61800Y113129D01*
X60924Y113492D01*
X59984Y113615D01*
D02*
G37*
G36*
X48591Y90091D02*
X46000D01*
Y88500D01*
X48591D01*
Y90091D01*
D02*
G37*
G36*
X45000D02*
X42409D01*
Y88500D01*
X45000D01*
Y90091D01*
D02*
G37*
G36*
X59984Y93615D02*
X59044Y93492D01*
X58169Y93129D01*
X57417Y92552D01*
X56840Y91800D01*
X56477Y90924D01*
X56353Y89984D01*
X56477Y89044D01*
X56840Y88169D01*
X57417Y87417D01*
X58169Y86840D01*
X59044Y86477D01*
X59984Y86353D01*
X60924Y86477D01*
X61800Y86840D01*
X62552Y87417D01*
X63129Y88169D01*
X63492Y89044D01*
X63615Y89984D01*
X63492Y90924D01*
X63129Y91800D01*
X62552Y92552D01*
X61800Y93129D01*
X60924Y93492D01*
X59984Y93615D01*
D02*
G37*
G36*
X48591Y87500D02*
X46000D01*
Y85909D01*
X48591D01*
Y87500D01*
D02*
G37*
G36*
X45000D02*
X42409D01*
Y85909D01*
X45000D01*
Y87500D01*
D02*
G37*
G36*
X18616Y90100D02*
X12416D01*
Y85900D01*
X14598D01*
Y85862D01*
X14668Y85511D01*
X14867Y85213D01*
X19626Y80454D01*
X19432Y80091D01*
X19173Y80143D01*
X18478Y80005D01*
X17889Y79611D01*
X17495Y79022D01*
X17357Y78327D01*
X17495Y77632D01*
X17889Y77043D01*
X18478Y76649D01*
X19173Y76511D01*
X19605Y76597D01*
X22702Y73500D01*
X22551Y73137D01*
X12554D01*
X12304Y73441D01*
X12316Y73500D01*
X12178Y74195D01*
X11784Y74784D01*
X11195Y75178D01*
X10500Y75316D01*
X9805Y75178D01*
X9216Y74784D01*
X8822Y74195D01*
X8684Y73500D01*
X8822Y72805D01*
X9216Y72216D01*
X9805Y71822D01*
X10500Y71684D01*
X10932Y71770D01*
X11132Y71570D01*
X11430Y71371D01*
X11781Y71301D01*
X14933D01*
X15236Y71084D01*
Y67915D01*
X17108D01*
X19364Y65659D01*
X19201Y65265D01*
X17837D01*
Y63622D01*
X17068D01*
Y65265D01*
X11931D01*
Y59735D01*
X17068D01*
Y61378D01*
X17837D01*
Y59735D01*
X22974D01*
Y65265D01*
X21323D01*
Y65916D01*
X21253Y66267D01*
X21054Y66564D01*
X18406Y69213D01*
Y69787D01*
X19920Y71301D01*
X21281D01*
X21401Y70908D01*
X21216Y70784D01*
X20822Y70195D01*
X20684Y69500D01*
X20822Y68805D01*
X21216Y68216D01*
X21805Y67822D01*
X22500Y67684D01*
X23195Y67822D01*
X23306Y67896D01*
X25916Y65287D01*
Y64236D01*
X29085D01*
Y64903D01*
X30415D01*
Y64236D01*
X33584D01*
Y67405D01*
X30415D01*
Y66739D01*
X29085D01*
Y67405D01*
X26392D01*
X24313Y69485D01*
X24316Y69500D01*
X24178Y70195D01*
X23784Y70784D01*
X23599Y70908D01*
X23719Y71301D01*
X27754D01*
X27964Y70908D01*
X27822Y70695D01*
X27684Y70000D01*
X27822Y69305D01*
X28216Y68716D01*
X28805Y68322D01*
X29500Y68184D01*
X30195Y68322D01*
X30784Y68716D01*
X31178Y69305D01*
X31258Y69707D01*
X31299Y69916D01*
X31701D01*
X31742Y69707D01*
X31822Y69305D01*
X32216Y68716D01*
X32805Y68322D01*
X33500Y68184D01*
X34195Y68322D01*
X34784Y68716D01*
X35178Y69305D01*
X35227Y69555D01*
X44488D01*
X44839Y69625D01*
X45137Y69824D01*
X48412Y73098D01*
X57100D01*
X57431Y72768D01*
X57417Y72552D01*
X56840Y71800D01*
X56477Y70924D01*
X56353Y69984D01*
X56477Y69045D01*
X56840Y68169D01*
X57417Y67417D01*
X58169Y66840D01*
X59044Y66477D01*
X59984Y66353D01*
X60924Y66477D01*
X61800Y66840D01*
X62552Y67417D01*
X63129Y68169D01*
X63492Y69045D01*
X63615Y69984D01*
X63492Y70924D01*
X63129Y71800D01*
X62552Y72552D01*
X61800Y73129D01*
X60924Y73492D01*
X59984Y73615D01*
X59272Y73522D01*
X58129Y74665D01*
X57832Y74863D01*
X57480Y74933D01*
X48441D01*
X48278Y75327D01*
X52034Y79082D01*
X56472D01*
X56477Y79045D01*
X56840Y78169D01*
X57417Y77417D01*
X58169Y76840D01*
X59044Y76477D01*
X59984Y76353D01*
X60924Y76477D01*
X61800Y76840D01*
X62552Y77417D01*
X63129Y78169D01*
X63492Y79045D01*
X63615Y79984D01*
X63492Y80924D01*
X63129Y81800D01*
X62552Y82552D01*
X61800Y83129D01*
X60924Y83492D01*
X59984Y83615D01*
X59044Y83492D01*
X58169Y83129D01*
X57417Y82552D01*
X56840Y81800D01*
X56477Y80924D01*
X56476Y80918D01*
X52415D01*
X52264Y81281D01*
X53649Y82666D01*
X53800Y82893D01*
X54284Y83216D01*
X54678Y83805D01*
X54816Y84500D01*
X54678Y85195D01*
X54284Y85784D01*
X53695Y86178D01*
X53000Y86316D01*
X52305Y86178D01*
X51716Y85784D01*
X51322Y85195D01*
X51184Y84500D01*
X51322Y83805D01*
X51671Y83284D01*
X43675Y75288D01*
X43312Y75482D01*
X43316Y75500D01*
X43178Y76195D01*
X42784Y76784D01*
X42195Y77178D01*
X41500Y77316D01*
X41068Y77230D01*
X40068Y78230D01*
X39770Y78429D01*
X39419Y78499D01*
X30081D01*
X29730Y78429D01*
X29432Y78230D01*
X27749Y76547D01*
X27343Y76572D01*
X27034Y77034D01*
X26445Y77428D01*
X25750Y77566D01*
X25216Y77460D01*
X23149Y79527D01*
X23149Y79527D01*
X17139Y85536D01*
X17290Y85900D01*
X18616D01*
Y90100D01*
D02*
G37*
G36*
X38585Y67585D02*
X35416D01*
Y64416D01*
X36082D01*
Y63585D01*
X35416D01*
Y61213D01*
X34432Y60230D01*
X34000Y60316D01*
X33305Y60178D01*
X32716Y59784D01*
X32322Y59195D01*
X32184Y58500D01*
X32322Y57805D01*
X32716Y57216D01*
X33305Y56822D01*
X34000Y56684D01*
X34695Y56822D01*
X35284Y57216D01*
X35678Y57805D01*
X35816Y58500D01*
X35730Y58932D01*
X37213Y60416D01*
X38585D01*
Y63585D01*
X37918D01*
Y64416D01*
X38585D01*
Y67585D01*
D02*
G37*
G36*
X59984Y63615D02*
X59044Y63492D01*
X58169Y63129D01*
X57417Y62552D01*
X56840Y61800D01*
X56477Y60924D01*
X56353Y59984D01*
X56477Y59044D01*
X56840Y58169D01*
X57417Y57417D01*
X58169Y56840D01*
X59044Y56477D01*
X59984Y56353D01*
X60924Y56477D01*
X61800Y56840D01*
X62552Y57417D01*
X63129Y58169D01*
X63492Y59044D01*
X63615Y59984D01*
X63492Y60924D01*
X63129Y61800D01*
X62552Y62552D01*
X61800Y63129D01*
X60924Y63492D01*
X59984Y63615D01*
D02*
G37*
G36*
Y53615D02*
X59044Y53492D01*
X58169Y53129D01*
X57417Y52552D01*
X56840Y51800D01*
X56477Y50924D01*
X56353Y49984D01*
X56477Y49044D01*
X56840Y48169D01*
X57417Y47417D01*
X58169Y46840D01*
X59044Y46477D01*
X59984Y46353D01*
X60924Y46477D01*
X61800Y46840D01*
X62552Y47417D01*
X63129Y48169D01*
X63492Y49044D01*
X63615Y49984D01*
X63492Y50924D01*
X63129Y51800D01*
X62552Y52552D01*
X61800Y53129D01*
X60924Y53492D01*
X59984Y53615D01*
D02*
G37*
G36*
X42226Y67585D02*
X39057D01*
Y64416D01*
X39724D01*
Y63585D01*
X39057D01*
Y60416D01*
X41287D01*
X42770Y58932D01*
X42684Y58500D01*
X42822Y57805D01*
X43216Y57216D01*
X43805Y56822D01*
X44500Y56684D01*
X45195Y56822D01*
X45689Y57152D01*
X46082Y57008D01*
Y44405D01*
X46152Y44054D01*
X46351Y43757D01*
X47223Y42885D01*
X47137Y42453D01*
X47275Y41758D01*
X47669Y41169D01*
X48258Y40775D01*
X48953Y40637D01*
X49385Y40723D01*
X51082Y39025D01*
Y37492D01*
X50689Y37348D01*
X50195Y37678D01*
X49500Y37816D01*
X48805Y37678D01*
X48216Y37284D01*
X47822Y36695D01*
X47684Y36000D01*
X47822Y35305D01*
X48216Y34716D01*
X48303Y34658D01*
X48353Y34151D01*
X45120Y30918D01*
X36693D01*
X36342Y30848D01*
X36044Y30649D01*
X24093Y18698D01*
X23500Y18816D01*
X22805Y18678D01*
X22216Y18284D01*
X21822Y17695D01*
X21684Y17000D01*
X21822Y16305D01*
X22216Y15716D01*
X22805Y15322D01*
X23500Y15184D01*
X24195Y15322D01*
X24784Y15716D01*
X25178Y16305D01*
X25316Y17000D01*
X25262Y17271D01*
X37073Y29082D01*
X45500D01*
X45851Y29152D01*
X46149Y29351D01*
X50149Y33351D01*
X50348Y33649D01*
X50418Y34000D01*
Y34407D01*
X50738Y34627D01*
X51082Y34483D01*
Y31693D01*
Y10845D01*
X50203Y9965D01*
X49606Y10084D01*
X48911Y9945D01*
X48322Y9552D01*
X47929Y8963D01*
X47790Y8268D01*
X47929Y7573D01*
X48322Y6984D01*
X48911Y6590D01*
X49606Y6452D01*
X50301Y6590D01*
X50890Y6984D01*
X51284Y7573D01*
X51422Y8268D01*
X51369Y8536D01*
X52619Y9786D01*
X52746Y9772D01*
X53012Y9651D01*
Y3024D01*
X52707Y2718D01*
X52464Y2354D01*
X52378Y1925D01*
X52378Y1925D01*
Y-607D01*
X52216Y-716D01*
X51822Y-1305D01*
X51684Y-2000D01*
X51822Y-2695D01*
X52039Y-3019D01*
X51829Y-3413D01*
X50183D01*
X48225Y-1455D01*
X48316Y-1000D01*
X48178Y-305D01*
X47784Y284D01*
X47195Y678D01*
X46500Y816D01*
X45805Y678D01*
X45216Y284D01*
X44822Y-305D01*
X44684Y-1000D01*
X44822Y-1695D01*
X45216Y-2284D01*
X45805Y-2678D01*
X46500Y-2816D01*
X46909Y-2735D01*
X49154Y-4980D01*
X49452Y-5178D01*
X49803Y-5248D01*
X52207D01*
X52326Y-5642D01*
X52216Y-5716D01*
X52039Y-5980D01*
X49352D01*
X47965Y-4594D01*
X47634Y-4373D01*
X47244Y-4295D01*
X45162D01*
X44985Y-4031D01*
X44396Y-3637D01*
X43701Y-3499D01*
X43006Y-3637D01*
X42417Y-4031D01*
X42023Y-4620D01*
X41885Y-5315D01*
X41947Y-5627D01*
X40719Y-6854D01*
X32296D01*
X24221Y1221D01*
X23890Y1442D01*
X23500Y1520D01*
X17461D01*
X17284Y1784D01*
X16695Y2178D01*
X16000Y2316D01*
X15305Y2178D01*
X14716Y1784D01*
X14322Y1195D01*
X14184Y500D01*
X14322Y-195D01*
X14716Y-784D01*
X15305Y-1178D01*
X16000Y-1316D01*
X16695Y-1178D01*
X17284Y-784D01*
X17461Y-520D01*
X20324D01*
X20510Y-867D01*
X20369Y-1077D01*
X20231Y-1772D01*
X20269Y-1963D01*
X17646Y-4587D01*
X12244D01*
X12244Y-4587D01*
X11815Y-4673D01*
X11451Y-4916D01*
X6555Y-9812D01*
X5861Y-9524D01*
X4921Y-9400D01*
X3982Y-9524D01*
X3106Y-9887D01*
X2354Y-10464D01*
X1777Y-11216D01*
X1414Y-12092D01*
X1290Y-13032D01*
X1414Y-13971D01*
X1777Y-14847D01*
X2354Y-15599D01*
X3106Y-16176D01*
X3800Y-16464D01*
Y-19600D01*
X3106Y-19887D01*
X2354Y-20464D01*
X1777Y-21216D01*
X1414Y-22092D01*
X1290Y-23031D01*
X1414Y-23971D01*
X1777Y-24847D01*
X2354Y-25599D01*
X3106Y-26176D01*
X3982Y-26539D01*
X4921Y-26663D01*
X5861Y-26539D01*
X6737Y-26176D01*
X7489Y-25599D01*
X8066Y-24847D01*
X8429Y-23971D01*
X8552Y-23031D01*
X8429Y-22092D01*
X8066Y-21216D01*
X7489Y-20464D01*
X6737Y-19887D01*
X6043Y-19600D01*
Y-16464D01*
X6737Y-16176D01*
X7489Y-15599D01*
X8066Y-14847D01*
X8429Y-13971D01*
X8552Y-13032D01*
X8429Y-12092D01*
X8141Y-11398D01*
X12709Y-6830D01*
X18110D01*
X18110Y-6830D01*
X18539Y-6745D01*
X18903Y-6502D01*
X21856Y-3550D01*
X22047Y-3588D01*
X22742Y-3449D01*
X23331Y-3056D01*
X23725Y-2467D01*
X23848Y-1847D01*
X24069Y-1728D01*
X24249Y-1690D01*
X31153Y-8595D01*
X31484Y-8816D01*
X31874Y-8894D01*
X41142D01*
X41532Y-8816D01*
X41863Y-8595D01*
X43389Y-7069D01*
X43701Y-7131D01*
X44396Y-6993D01*
X44985Y-6599D01*
X45162Y-6335D01*
X46822D01*
X48208Y-7721D01*
X48539Y-7942D01*
X48929Y-8020D01*
X52039D01*
X52216Y-8284D01*
X52805Y-8678D01*
X53500Y-8816D01*
X54195Y-8678D01*
X54784Y-8284D01*
X55178Y-7695D01*
X55316Y-7000D01*
X55178Y-6305D01*
X54784Y-5716D01*
X54674Y-5642D01*
X54793Y-5248D01*
X55669D01*
X56020Y-5178D01*
X56318Y-4980D01*
X58151Y-3147D01*
X58169Y-3160D01*
X59044Y-3523D01*
X59984Y-3647D01*
X60924Y-3523D01*
X61800Y-3160D01*
X62552Y-2583D01*
X63129Y-1831D01*
X63492Y-955D01*
X63615Y-16D01*
X63492Y924D01*
X63129Y1800D01*
X62552Y2552D01*
X61800Y3129D01*
X60924Y3492D01*
X59984Y3615D01*
X59044Y3492D01*
X58169Y3129D01*
X57417Y2552D01*
X56840Y1800D01*
X56477Y924D01*
X56353Y-16D01*
X56477Y-955D01*
X56840Y-1831D01*
X56853Y-1849D01*
X55503Y-3199D01*
X55332Y-3173D01*
X55143Y-2747D01*
X55178Y-2695D01*
X55316Y-2000D01*
X55178Y-1305D01*
X54784Y-716D01*
X54622Y-607D01*
Y1461D01*
X54927Y1766D01*
X54927Y1766D01*
X55170Y2130D01*
X55255Y2559D01*
Y61366D01*
X55255Y61366D01*
X55170Y61795D01*
X54927Y62159D01*
X54778Y62308D01*
X54816Y62500D01*
X54678Y63195D01*
X54284Y63784D01*
X53695Y64178D01*
X53000Y64316D01*
X52305Y64178D01*
X51716Y63784D01*
X51507Y63472D01*
X51034D01*
X50890Y63686D01*
X50301Y64079D01*
X49606Y64218D01*
X48911Y64079D01*
X48322Y63686D01*
X47929Y63096D01*
X47790Y62402D01*
X47876Y61969D01*
X46351Y60444D01*
X46152Y60146D01*
X46121Y59989D01*
X46006Y59919D01*
X45703Y59838D01*
X45195Y60178D01*
X44500Y60316D01*
X44068Y60230D01*
X42226Y62071D01*
Y63585D01*
X41560D01*
Y64416D01*
X42226D01*
Y67585D01*
D02*
G37*
G36*
X59984Y43615D02*
X59044Y43492D01*
X58169Y43129D01*
X57417Y42552D01*
X56840Y41800D01*
X56477Y40924D01*
X56353Y39984D01*
X56477Y39044D01*
X56840Y38169D01*
X57417Y37417D01*
X58169Y36840D01*
X59044Y36477D01*
X59984Y36353D01*
X60924Y36477D01*
X61800Y36840D01*
X62552Y37417D01*
X63129Y38169D01*
X63492Y39044D01*
X63615Y39984D01*
X63492Y40924D01*
X63129Y41800D01*
X62552Y42552D01*
X61800Y43129D01*
X60924Y43492D01*
X59984Y43615D01*
D02*
G37*
G36*
Y33615D02*
X59044Y33492D01*
X58169Y33129D01*
X57417Y32552D01*
X56840Y31800D01*
X56477Y30924D01*
X56353Y29984D01*
X56477Y29044D01*
X56840Y28169D01*
X57417Y27417D01*
X58169Y26840D01*
X59044Y26477D01*
X59984Y26353D01*
X60924Y26477D01*
X61800Y26840D01*
X62552Y27417D01*
X63129Y28169D01*
X63492Y29044D01*
X63615Y29984D01*
X63492Y30924D01*
X63129Y31800D01*
X62552Y32552D01*
X61800Y33129D01*
X60924Y33492D01*
X59984Y33615D01*
D02*
G37*
G36*
X44500Y24816D02*
X43805Y24678D01*
X43216Y24284D01*
X42822Y23695D01*
X42684Y23000D01*
X42822Y22305D01*
X43216Y21716D01*
X43378Y21607D01*
Y20965D01*
X42998Y20584D01*
X41416D01*
Y20121D01*
X40084D01*
Y20584D01*
X36915D01*
Y17415D01*
X40084D01*
Y17878D01*
X41416D01*
Y17415D01*
X44585D01*
Y17878D01*
X45915D01*
Y17415D01*
X49084D01*
Y20584D01*
X45915D01*
X45622Y20825D01*
Y21607D01*
X45784Y21716D01*
X46178Y22305D01*
X46316Y23000D01*
X46178Y23695D01*
X45784Y24284D01*
X45195Y24678D01*
X44500Y24816D01*
D02*
G37*
G36*
X59984Y23615D02*
X59044Y23492D01*
X58169Y23129D01*
X57417Y22552D01*
X56840Y21800D01*
X56477Y20924D01*
X56353Y19984D01*
X56477Y19045D01*
X56840Y18169D01*
X57417Y17417D01*
X58169Y16840D01*
X59044Y16477D01*
X59984Y16353D01*
X60924Y16477D01*
X61800Y16840D01*
X62552Y17417D01*
X63129Y18169D01*
X63492Y19045D01*
X63615Y19984D01*
X63492Y20924D01*
X63129Y21800D01*
X62552Y22552D01*
X61800Y23129D01*
X60924Y23492D01*
X59984Y23615D01*
D02*
G37*
G36*
X-16D02*
X-955Y23492D01*
X-1831Y23129D01*
X-2583Y22552D01*
X-3160Y21800D01*
X-3523Y20924D01*
X-3647Y19984D01*
X-3523Y19045D01*
X-3160Y18169D01*
X-2583Y17417D01*
X-1831Y16840D01*
X-955Y16477D01*
X-16Y16353D01*
X924Y16477D01*
X1800Y16840D01*
X2552Y17417D01*
X3129Y18169D01*
X3492Y19045D01*
X3615Y19984D01*
X3492Y20924D01*
X3129Y21800D01*
X2552Y22552D01*
X1800Y23129D01*
X924Y23492D01*
X-16Y23615D01*
D02*
G37*
G36*
X40084Y16942D02*
X36915D01*
Y13773D01*
X37582D01*
Y13468D01*
X37652Y13117D01*
X37851Y12820D01*
X38427Y12243D01*
X38342Y11811D01*
X38480Y11116D01*
X38873Y10527D01*
X39463Y10133D01*
X40157Y9995D01*
X40852Y10133D01*
X41442Y10527D01*
X41835Y11116D01*
X41974Y11811D01*
X41835Y12506D01*
X41442Y13095D01*
X40852Y13489D01*
X40398Y13579D01*
X40136Y13742D01*
X40084Y14012D01*
Y16942D01*
D02*
G37*
G36*
X59984Y13615D02*
X59044Y13492D01*
X58169Y13129D01*
X57417Y12552D01*
X56840Y11800D01*
X56477Y10924D01*
X56353Y9984D01*
X56477Y9044D01*
X56840Y8169D01*
X57417Y7417D01*
X58169Y6840D01*
X59044Y6477D01*
X59984Y6353D01*
X60924Y6477D01*
X61800Y6840D01*
X62552Y7417D01*
X63129Y8169D01*
X63492Y9044D01*
X63615Y9984D01*
X63492Y10924D01*
X63129Y11800D01*
X62552Y12552D01*
X61800Y13129D01*
X60924Y13492D01*
X59984Y13615D01*
D02*
G37*
G36*
X-16D02*
X-955Y13492D01*
X-1831Y13129D01*
X-2583Y12552D01*
X-3160Y11800D01*
X-3523Y10924D01*
X-3647Y9984D01*
X-3523Y9044D01*
X-3160Y8169D01*
X-2583Y7417D01*
X-1831Y6840D01*
X-955Y6477D01*
X-16Y6353D01*
X924Y6477D01*
X1800Y6840D01*
X2552Y7417D01*
X3129Y8169D01*
X3492Y9044D01*
X3615Y9984D01*
X3492Y10924D01*
X3129Y11800D01*
X2552Y12552D01*
X1800Y13129D01*
X924Y13492D01*
X-16Y13615D01*
D02*
G37*
G36*
X33500Y21316D02*
X32805Y21178D01*
X32216Y20784D01*
X31822Y20195D01*
X31684Y19500D01*
X31822Y18805D01*
X32216Y18216D01*
X32547Y17995D01*
Y-965D01*
X32617Y-1316D01*
X32816Y-1613D01*
X33770Y-2568D01*
X33684Y-3000D01*
X33822Y-3695D01*
X34216Y-4284D01*
X34805Y-4678D01*
X35500Y-4816D01*
X36195Y-4678D01*
X36784Y-4284D01*
X37178Y-3695D01*
X37316Y-3000D01*
X37178Y-2305D01*
X36784Y-1716D01*
X36195Y-1322D01*
X35500Y-1184D01*
X35068Y-1270D01*
X34382Y-585D01*
Y17947D01*
X34784Y18216D01*
X35178Y18805D01*
X35316Y19500D01*
X35178Y20195D01*
X34784Y20784D01*
X34195Y21178D01*
X33500Y21316D01*
D02*
G37*
G36*
X54921Y-9400D02*
X53982Y-9524D01*
X53106Y-9887D01*
X52354Y-10464D01*
X51777Y-11216D01*
X51414Y-12092D01*
X51290Y-13032D01*
X51414Y-13971D01*
X51777Y-14847D01*
X52354Y-15599D01*
X53106Y-16176D01*
X53982Y-16539D01*
X54921Y-16663D01*
X55861Y-16539D01*
X56737Y-16176D01*
X57489Y-15599D01*
X58066Y-14847D01*
X58429Y-13971D01*
X58552Y-13032D01*
X58429Y-12092D01*
X58066Y-11216D01*
X57489Y-10464D01*
X56737Y-9887D01*
X55861Y-9524D01*
X54921Y-9400D01*
D02*
G37*
G36*
X44921D02*
X43982Y-9524D01*
X43106Y-9887D01*
X42354Y-10464D01*
X41777Y-11216D01*
X41414Y-12092D01*
X41290Y-13032D01*
X41414Y-13971D01*
X41777Y-14847D01*
X42354Y-15599D01*
X43106Y-16176D01*
X43982Y-16539D01*
X44921Y-16663D01*
X45861Y-16539D01*
X46737Y-16176D01*
X47489Y-15599D01*
X48066Y-14847D01*
X48429Y-13971D01*
X48552Y-13032D01*
X48429Y-12092D01*
X48066Y-11216D01*
X47489Y-10464D01*
X46737Y-9887D01*
X45861Y-9524D01*
X44921Y-9400D01*
D02*
G37*
G36*
X34921D02*
X33981Y-9524D01*
X33106Y-9887D01*
X32354Y-10464D01*
X31777Y-11216D01*
X31414Y-12092D01*
X31290Y-13032D01*
X31414Y-13971D01*
X31777Y-14847D01*
X32354Y-15599D01*
X33106Y-16176D01*
X33981Y-16539D01*
X34921Y-16663D01*
X35861Y-16539D01*
X36737Y-16176D01*
X37489Y-15599D01*
X38066Y-14847D01*
X38429Y-13971D01*
X38552Y-13032D01*
X38429Y-12092D01*
X38066Y-11216D01*
X37489Y-10464D01*
X36737Y-9887D01*
X35861Y-9524D01*
X34921Y-9400D01*
D02*
G37*
G36*
X24921D02*
X23981Y-9524D01*
X23106Y-9887D01*
X22354Y-10464D01*
X21777Y-11216D01*
X21414Y-12092D01*
X21290Y-13032D01*
X21414Y-13971D01*
X21777Y-14847D01*
X22354Y-15599D01*
X23106Y-16176D01*
X23981Y-16539D01*
X24921Y-16663D01*
X25861Y-16539D01*
X26737Y-16176D01*
X27489Y-15599D01*
X28066Y-14847D01*
X28429Y-13971D01*
X28552Y-13032D01*
X28429Y-12092D01*
X28066Y-11216D01*
X27489Y-10464D01*
X26737Y-9887D01*
X25861Y-9524D01*
X24921Y-9400D01*
D02*
G37*
G36*
X54921Y-19400D02*
X53982Y-19524D01*
X53106Y-19887D01*
X52354Y-20464D01*
X51777Y-21216D01*
X51414Y-22092D01*
X51290Y-23031D01*
X51414Y-23971D01*
X51777Y-24847D01*
X52354Y-25599D01*
X53106Y-26176D01*
X53982Y-26539D01*
X54921Y-26663D01*
X55861Y-26539D01*
X56737Y-26176D01*
X57489Y-25599D01*
X58066Y-24847D01*
X58429Y-23971D01*
X58552Y-23031D01*
X58429Y-22092D01*
X58066Y-21216D01*
X57489Y-20464D01*
X56737Y-19887D01*
X55861Y-19524D01*
X54921Y-19400D01*
D02*
G37*
G36*
X44921D02*
X43982Y-19524D01*
X43106Y-19887D01*
X42354Y-20464D01*
X41777Y-21216D01*
X41414Y-22092D01*
X41290Y-23031D01*
X41414Y-23971D01*
X41777Y-24847D01*
X42354Y-25599D01*
X43106Y-26176D01*
X43982Y-26539D01*
X44921Y-26663D01*
X45861Y-26539D01*
X46737Y-26176D01*
X47489Y-25599D01*
X48066Y-24847D01*
X48429Y-23971D01*
X48552Y-23031D01*
X48429Y-22092D01*
X48066Y-21216D01*
X47489Y-20464D01*
X46737Y-19887D01*
X45861Y-19524D01*
X44921Y-19400D01*
D02*
G37*
G36*
X34921D02*
X33981Y-19524D01*
X33106Y-19887D01*
X32354Y-20464D01*
X31777Y-21216D01*
X31414Y-22092D01*
X31290Y-23031D01*
X31414Y-23971D01*
X31777Y-24847D01*
X32354Y-25599D01*
X33106Y-26176D01*
X33981Y-26539D01*
X34921Y-26663D01*
X35861Y-26539D01*
X36737Y-26176D01*
X37489Y-25599D01*
X38066Y-24847D01*
X38429Y-23971D01*
X38552Y-23031D01*
X38429Y-22092D01*
X38066Y-21216D01*
X37489Y-20464D01*
X36737Y-19887D01*
X35861Y-19524D01*
X34921Y-19400D01*
D02*
G37*
G36*
X24921D02*
X23981Y-19524D01*
X23106Y-19887D01*
X22354Y-20464D01*
X21777Y-21216D01*
X21414Y-22092D01*
X21290Y-23031D01*
X21414Y-23971D01*
X21777Y-24847D01*
X22354Y-25599D01*
X23106Y-26176D01*
X23981Y-26539D01*
X24921Y-26663D01*
X25861Y-26539D01*
X26737Y-26176D01*
X27489Y-25599D01*
X28066Y-24847D01*
X28429Y-23971D01*
X28552Y-23031D01*
X28429Y-22092D01*
X28066Y-21216D01*
X27489Y-20464D01*
X26737Y-19887D01*
X25861Y-19524D01*
X24921Y-19400D01*
D02*
G37*
%LPD*%
G36*
X51878Y115035D02*
Y99393D01*
X51716Y99284D01*
X51413Y98831D01*
X51020Y98951D01*
Y104379D01*
X50942Y104769D01*
X50721Y105100D01*
X45421Y110400D01*
X45090Y110621D01*
X44700Y110699D01*
X37084D01*
Y111264D01*
X33915D01*
Y108095D01*
X37084D01*
Y108659D01*
X44277D01*
X47473Y105464D01*
X47322Y105100D01*
X42400D01*
Y103918D01*
X35880D01*
X32097Y107701D01*
X32260Y108095D01*
X32585D01*
Y111264D01*
X29416D01*
Y108095D01*
X30082D01*
Y107500D01*
X30152Y107149D01*
X30351Y106851D01*
X33452Y103750D01*
X28932Y99230D01*
X28500Y99316D01*
X27805Y99178D01*
X27216Y98784D01*
X26822Y98195D01*
X26684Y97500D01*
X26822Y96805D01*
X27216Y96216D01*
X27805Y95822D01*
X28500Y95684D01*
X28911Y95766D01*
X29105Y95403D01*
X26432Y92730D01*
X26000Y92816D01*
X25305Y92678D01*
X24716Y92284D01*
X24322Y91695D01*
X24242Y91293D01*
X24201Y91084D01*
X23799D01*
X23758Y91293D01*
X23678Y91695D01*
X23284Y92284D01*
X22695Y92678D01*
X22000Y92816D01*
X21568Y92730D01*
X20649Y93649D01*
X20351Y93848D01*
X20000Y93918D01*
X18616D01*
Y95100D01*
X14441D01*
X14004Y95536D01*
X14155Y95900D01*
X18616D01*
Y99529D01*
X20068Y100981D01*
X20267Y101279D01*
X20336Y101630D01*
Y105039D01*
X20880Y105582D01*
X24500D01*
X24851Y105652D01*
X25149Y105851D01*
X27149Y107851D01*
X27312Y108095D01*
X28084D01*
Y111264D01*
X26073D01*
X25862Y111657D01*
X25915Y111737D01*
X28084D01*
Y112199D01*
X29416D01*
Y111737D01*
X32585D01*
Y112199D01*
X33915D01*
Y111737D01*
X37084D01*
Y112199D01*
X47821D01*
X47821Y112199D01*
X48250Y112285D01*
X48614Y112528D01*
X51500Y115414D01*
X51878Y115035D01*
D02*
G37*
D22*
X25500Y126953D02*
D03*
Y121047D02*
D03*
D24*
X40642Y62000D02*
D03*
X37000D02*
D03*
X40642Y66000D02*
D03*
X37000D02*
D03*
X12821Y10500D02*
D03*
X9179D02*
D03*
X14679Y38000D02*
D03*
X18321D02*
D03*
X14679Y33500D02*
D03*
X18321D02*
D03*
X9500Y131000D02*
D03*
X5858D02*
D03*
X9500Y135500D02*
D03*
X5858D02*
D03*
X34104Y130000D02*
D03*
X30463D02*
D03*
X13179Y69500D02*
D03*
X16821D02*
D03*
X9329Y15085D02*
D03*
X12971D02*
D03*
X9329Y19584D02*
D03*
X12971D02*
D03*
X18321Y47000D02*
D03*
X14679D02*
D03*
X18321Y42500D02*
D03*
X14679D02*
D03*
X18321Y29000D02*
D03*
X14679D02*
D03*
X18321Y24500D02*
D03*
X14679D02*
D03*
D25*
X31000Y113321D02*
D03*
Y109679D02*
D03*
X35500Y113321D02*
D03*
Y109679D02*
D03*
X26500Y113321D02*
D03*
Y109679D02*
D03*
X9000Y99821D02*
D03*
Y96179D02*
D03*
X38500Y15358D02*
D03*
Y19000D02*
D03*
X32000Y62179D02*
D03*
Y65821D02*
D03*
X17500Y113321D02*
D03*
Y109679D02*
D03*
X47500Y15358D02*
D03*
Y19000D02*
D03*
X43000Y15358D02*
D03*
Y19000D02*
D03*
X27500Y62179D02*
D03*
Y65821D02*
D03*
D26*
X23500Y17000D02*
X23693D01*
X21500Y103500D02*
X22000Y104000D01*
X29500D01*
X12000Y20556D02*
X12971Y19584D01*
X12000Y20556D02*
Y32000D01*
X10000Y34000D02*
X12000Y32000D01*
X12971Y15085D02*
Y19584D01*
X12821Y10500D02*
X12971Y10650D01*
Y15085D01*
X14679Y22321D02*
X16500Y20500D01*
X14679Y22321D02*
Y24500D01*
X15243Y93000D02*
X15516D01*
X20000D01*
X22000Y91000D01*
X33000Y98000D02*
X45500D01*
X26000Y91000D02*
X33000Y98000D01*
X35500Y103000D02*
X45500D01*
X13020Y56500D02*
X14500Y55020D01*
X34000Y58500D02*
X37000Y61500D01*
X27500Y65821D02*
X32000D01*
X23500Y69000D02*
X26679Y65821D01*
X27500D01*
X11500Y56500D02*
X13020D01*
X10000Y46000D02*
X11000Y47000D01*
X14679D01*
X10000Y37000D02*
Y41500D01*
X8000Y53000D02*
X11500Y56500D01*
X13500Y33500D02*
X14679D01*
X10000Y37000D02*
X13500Y33500D01*
X8679Y96000D02*
X12243D01*
X15243Y93000D01*
X12500Y36500D02*
X13500Y35500D01*
X12500Y36500D02*
Y42500D01*
X11081Y43919D02*
X12500Y42500D01*
X13500Y35500D02*
X18321D01*
X6000Y51000D02*
X8000Y53000D01*
X8919Y43919D02*
X11081D01*
X7500Y42500D02*
X8919Y43919D01*
X4500Y115500D02*
X11453Y122453D01*
Y125500D01*
X6000Y30000D02*
Y51000D01*
Y30000D02*
X8000Y28000D01*
X7500Y33000D02*
Y42500D01*
Y33000D02*
X10500Y30000D01*
X4500Y27500D02*
Y115500D01*
Y27500D02*
X6500Y25500D01*
X9500D01*
X10500Y26500D01*
Y30000D01*
X48953Y42453D02*
X52000Y39406D01*
X45500Y30000D02*
X49500Y34000D01*
Y35000D01*
X40642Y62000D02*
X41000D01*
X44500Y58500D01*
X16821Y69500D02*
X19540Y72219D01*
X30500Y75500D02*
X37500D01*
X16821Y69500D02*
X20405Y65916D01*
Y62500D02*
Y65916D01*
X10500Y73500D02*
X11781Y72219D01*
X19540D01*
X8000Y53000D02*
Y64500D01*
X6000Y66500D02*
X8000Y64500D01*
X6000Y66500D02*
Y113500D01*
X7500Y115000D01*
X31000Y107500D02*
Y109679D01*
Y107500D02*
X34750Y103750D01*
X28500Y97500D02*
X34750Y103750D01*
X35500Y103000D01*
X7500Y115000D02*
X10000D01*
X10184Y115184D01*
X21500Y96000D02*
X29500Y104000D01*
X15516Y98000D02*
X15789D01*
X19419Y101630D01*
Y105419D01*
X20500Y106500D01*
X24500D01*
X26500Y108500D01*
Y109679D01*
X30081Y77581D02*
X39419D01*
X41500Y75500D01*
X47000Y44405D02*
X48953Y42453D01*
X47000Y59795D02*
X49606Y62402D01*
X47000Y44405D02*
Y59795D01*
X8268Y69568D02*
X8918Y68918D01*
X8268Y69568D02*
Y87205D01*
X57480Y74016D02*
X60000Y71496D01*
Y70000D02*
Y71496D01*
X53000Y83315D02*
Y84500D01*
X51653Y80000D02*
X60000D01*
X48031Y74016D02*
X57480D01*
X5512Y4921D02*
X9179Y8588D01*
Y10500D01*
X23693Y17000D02*
X36693Y30000D01*
X45500D01*
X55669Y-4331D02*
X60000Y0D01*
X49606Y8268D02*
X49705Y8169D01*
X52000Y10465D01*
X5512Y2165D02*
Y4921D01*
Y2165D02*
X7677Y0D01*
X8268D01*
X23819Y0D02*
Y181D01*
X8500Y4500D02*
X11390D01*
X16500Y9610D01*
Y20500D01*
X33465Y-965D02*
X35500Y-3000D01*
X33465Y-965D02*
Y18965D01*
X34000Y19500D01*
X38500Y13468D02*
X40157Y11811D01*
X38500Y13468D02*
Y15358D01*
X46472Y-1000D02*
X49803Y-4331D01*
X55669D01*
X52000Y10465D02*
Y31693D01*
Y39406D01*
X25591Y75590D02*
X28091D01*
X30081Y77581D01*
X22500Y78878D02*
X25689Y75689D01*
X25591Y75590D02*
X25689Y75689D01*
X15516Y85862D02*
Y88000D01*
Y85862D02*
X22500Y78878D01*
Y78878D02*
Y78878D01*
X19173Y78327D02*
X23878Y73622D01*
X28622D01*
X30500Y75500D01*
X49500Y47500D02*
X51500Y45500D01*
X49500Y47500D02*
Y58500D01*
X33500Y70000D02*
X33972Y70472D01*
X44488D01*
X48031Y74016D01*
X43104Y73419D02*
X53000Y83315D01*
X40638Y73419D02*
X43104D01*
X40632Y73425D02*
X40638Y73419D01*
X38368Y73425D02*
X40632D01*
X38362Y73419D02*
X38368Y73425D01*
X36638Y73419D02*
X38362D01*
X36632Y73425D02*
X36638Y73419D01*
X43735Y72081D02*
X51653Y80000D01*
X29500Y70000D02*
X31581Y72081D01*
X43735D01*
X19540Y72219D02*
X29305D01*
X30512Y73425D01*
X36632D01*
X40642Y62000D02*
Y66000D01*
X37000Y62000D02*
Y66000D01*
D27*
X49000Y88000D02*
X55281Y94281D01*
X60000Y98976D02*
Y100000D01*
X55281Y94257D02*
X60000Y98976D01*
X44114Y87579D02*
X45079D01*
X39764Y91929D02*
X44114Y87579D01*
X39764Y91929D02*
Y93898D01*
X55281Y94257D02*
Y94281D01*
X24803Y116929D02*
X44291D01*
X21195Y113321D02*
X24803Y116929D01*
X17500Y113321D02*
X21195D01*
X14632D02*
X17500D01*
X12465Y115488D02*
X14632Y113321D01*
X12465Y115488D02*
Y119031D01*
X12205Y119291D02*
X12465Y119031D01*
X12205Y119291D02*
X14173Y121260D01*
Y123622D01*
X22047Y127756D02*
Y130047D01*
Y124500D02*
Y126969D01*
X21457Y144882D02*
X21457Y144882D01*
Y139075D02*
Y144882D01*
X23524Y158661D02*
X30512Y151673D01*
Y139075D02*
Y151673D01*
X30463Y139025D02*
X30512Y139075D01*
X30463Y130000D02*
Y139025D01*
X12740Y156441D02*
X14961Y158661D01*
X12740Y151732D02*
Y156441D01*
X23524Y158661D02*
X30512Y165650D01*
X14961Y158661D02*
X23524D01*
X11811Y161811D02*
X14961Y158661D01*
X7874Y161811D02*
X11811D01*
X5260Y159197D02*
X7874Y161811D01*
X5260Y151732D02*
Y159197D01*
X9000Y158410D02*
X9055Y158465D01*
X9000Y151732D02*
Y158410D01*
X39567Y139075D02*
X43799D01*
X50394Y132480D01*
X56693Y151575D02*
X59842Y148425D01*
Y148622D01*
X51181Y151575D02*
X56693D01*
X43000Y19000D02*
X47500D01*
X44500Y20500D02*
Y23000D01*
X43000Y19000D02*
X44500Y20500D01*
X26000Y134000D02*
Y143000D01*
X31000Y113321D02*
X35500D01*
X26500D02*
X31000D01*
X22000Y109679D02*
X25642Y113321D01*
X26500D01*
X17500Y109679D02*
X22000D01*
X15516Y103000D02*
Y107695D01*
X17500Y109679D01*
X9500Y131000D02*
Y135500D01*
X9000Y147008D02*
Y151732D01*
X14679Y42500D02*
Y47000D01*
X18321Y42500D02*
Y47000D01*
X14679Y24500D02*
Y29000D01*
X18321Y24500D02*
Y29000D01*
X5260Y143268D02*
X5858Y142670D01*
X5547Y125500D02*
X5858Y125811D01*
Y126189D01*
Y131000D01*
X5760Y126287D02*
X5858Y126189D01*
Y131000D02*
Y135500D01*
Y142670D01*
X14500Y62500D02*
X20405D01*
X21000Y137931D02*
X21445Y137486D01*
X14679Y38000D02*
Y42500D01*
X27500Y62179D02*
X32000D01*
X20405Y55020D02*
X24520D01*
X27500Y58000D01*
Y62179D01*
X9500Y100500D02*
X12000Y103000D01*
X15516D01*
X18321Y33500D02*
Y35500D01*
Y38000D01*
X14679Y29000D02*
Y33500D01*
X45500Y88000D02*
X49000D01*
X38500Y19000D02*
X43000D01*
X15516Y98000D02*
X15797Y98281D01*
X25500Y121047D02*
X26047Y120500D01*
X53000Y98000D02*
Y115500D01*
X26047Y120500D02*
X48000D01*
X35500Y113321D02*
X47821D01*
X51500Y117000D01*
X53000Y115500D01*
X48000Y120500D02*
X51500Y117000D01*
X9500Y131000D02*
X11323D01*
X14173Y128150D01*
X28547Y130000D02*
X30463D01*
X25500Y126953D02*
X28547Y130000D01*
X34104D02*
X34142Y130037D01*
X14173Y123622D02*
Y128150D01*
X22047Y124500D02*
X25500Y121047D01*
X22047Y130047D02*
X26000Y134000D01*
X17717Y133758D02*
X21445Y137486D01*
X14173Y123622D02*
X17913Y119882D01*
Y119047D02*
Y119882D01*
X17717Y125244D02*
Y133758D01*
Y125244D02*
X17913Y125047D01*
X9500Y135500D02*
Y137059D01*
X12598Y140157D01*
Y143126D01*
X4921Y-23031D02*
Y-13032D01*
X14921Y-23031D02*
Y-13032D01*
Y-26221D02*
Y-23031D01*
X27500Y46331D02*
Y58000D01*
Y46331D02*
X27835Y45996D01*
X32165D01*
X36496D01*
X23504D02*
X27835D01*
X18321Y47000D02*
X22500D01*
X23504Y45996D01*
X18321Y29000D02*
X19500D01*
X23504Y33004D01*
X9329Y15085D02*
Y19584D01*
X5512Y11267D02*
X9329Y15085D01*
X5512Y8071D02*
Y11267D01*
X0Y2559D02*
X5512Y8071D01*
X0Y0D02*
Y2559D01*
Y-25984D02*
Y0D01*
X53000Y62500D02*
X54134Y61366D01*
X53500Y-2000D02*
Y1925D01*
X54134Y2559D01*
Y61366D01*
X4921Y-13032D02*
X12244Y-5709D01*
X18110D01*
X22047Y-1772D01*
X23819Y0D01*
X0Y0D02*
X3543Y-3543D01*
X18307Y21654D02*
X19685Y20276D01*
X18307Y21654D02*
Y24486D01*
X18321Y24500D01*
X12597Y68918D02*
X13179Y69500D01*
X8918Y68918D02*
X12597D01*
X31000Y113321D02*
X31500Y113821D01*
X28346Y-591D02*
X33465Y-5709D01*
X19685Y8071D02*
Y20276D01*
X3543Y-3543D02*
X8268D01*
X19783Y7972D01*
X28346Y-591D01*
X33465Y-5709D02*
X37795D01*
X42126Y-1378D01*
Y-1181D01*
X45250Y1943D01*
Y15358D01*
X43000D02*
X45250D01*
X47500D01*
X34142Y130037D02*
Y133650D01*
X39567Y139075D01*
X32874Y159646D02*
X35524Y156996D01*
Y151090D02*
Y156996D01*
Y151090D02*
X39567Y147047D01*
Y139075D02*
Y147047D01*
X37646Y124606D02*
X38189Y125150D01*
X30463Y127608D02*
Y130000D01*
Y127608D02*
X32236Y125835D01*
Y124016D02*
Y125835D01*
X34104Y128100D02*
Y130000D01*
Y128100D02*
X37055Y125150D01*
X38189D01*
X12941Y143949D02*
X16732Y140157D01*
X9000Y147008D02*
X12059Y143949D01*
X12740Y143268D01*
X12598Y143126D02*
X12740Y143268D01*
X12059Y143949D02*
X12941D01*
X0Y-25984D02*
X2416Y-28400D01*
X12742D01*
X14921Y-26221D01*
D28*
X21850Y127953D02*
X22047Y127756D01*
Y126969D02*
Y127756D01*
X35500Y109679D02*
X44700D01*
X50000Y104379D01*
X45500Y93000D02*
X47000D01*
X50000Y96000D01*
Y104379D01*
X45079Y87579D02*
X45500Y88000D01*
X47244Y-5315D02*
X48929Y-7000D01*
X53500D01*
X45079Y84055D02*
Y87579D01*
X34646Y63386D02*
Y67716D01*
X33439Y62179D02*
X34646Y63386D01*
X32000Y62179D02*
X33439D01*
X23500Y500D02*
X23819Y181D01*
X16000Y500D02*
X23500D01*
X23819Y181D02*
X31874Y-7874D01*
X41142D01*
X43701Y-5315D01*
X47244D01*
X46850Y68700D02*
X49606Y71457D01*
X34646Y67716D02*
X35629Y68700D01*
X46850D01*
D29*
X22126Y155559D02*
D03*
X37874D02*
D03*
D30*
X17500Y165500D02*
D03*
X42500D02*
D03*
D31*
X4921Y-23031D02*
D03*
X14921D02*
D03*
X24921D02*
D03*
X34921D02*
D03*
X44921D02*
D03*
X54921D02*
D03*
X4921Y-13032D02*
D03*
X14921D02*
D03*
X24921D02*
D03*
X34921D02*
D03*
X44921D02*
D03*
X54921D02*
D03*
X59984Y109984D02*
D03*
Y99984D02*
D03*
Y89984D02*
D03*
Y79984D02*
D03*
Y69984D02*
D03*
Y59984D02*
D03*
Y49984D02*
D03*
Y39984D02*
D03*
Y29984D02*
D03*
Y19984D02*
D03*
Y9984D02*
D03*
Y-16D02*
D03*
X-16D02*
D03*
Y9984D02*
D03*
Y19984D02*
D03*
Y29984D02*
D03*
Y39984D02*
D03*
Y49984D02*
D03*
Y59984D02*
D03*
Y69984D02*
D03*
Y79984D02*
D03*
Y89984D02*
D03*
Y99984D02*
D03*
Y109984D02*
D03*
D32*
X36496Y33004D02*
D03*
X32165D02*
D03*
X27835D02*
D03*
X23504D02*
D03*
X36496Y37335D02*
D03*
X32165D02*
D03*
X27835D02*
D03*
X23504D02*
D03*
X36496Y41665D02*
D03*
X32165D02*
D03*
X27835D02*
D03*
X23504D02*
D03*
X36496Y45996D02*
D03*
X32165D02*
D03*
X27835D02*
D03*
X23504D02*
D03*
X23500Y17000D02*
D03*
X39764Y93898D02*
D03*
X44291Y116929D02*
D03*
X12205Y119291D02*
D03*
X21850Y127953D02*
D03*
X16732Y140157D02*
D03*
X21457Y144882D02*
D03*
X9055Y158465D02*
D03*
X50394Y132480D02*
D03*
X59842Y148622D02*
D03*
X51181Y151575D02*
D03*
X28346Y-591D02*
D03*
X8500Y4500D02*
D03*
X41500Y75500D02*
D03*
X37500D02*
D03*
X10000Y34000D02*
D03*
Y46000D02*
D03*
X49500Y58500D02*
D03*
Y36000D02*
D03*
X10000Y41500D02*
D03*
X44500Y23000D02*
D03*
X26000Y143000D02*
D03*
X49606Y62402D02*
D03*
X8000Y28000D02*
D03*
X22000Y91000D02*
D03*
X26000D02*
D03*
X28500Y97500D02*
D03*
X19173Y78327D02*
D03*
X34000Y58500D02*
D03*
X22500Y69500D02*
D03*
X51500Y45500D02*
D03*
X48953Y42453D02*
D03*
X53000Y98000D02*
D03*
X53500Y-7000D02*
D03*
X44500Y58500D02*
D03*
X33500Y70000D02*
D03*
X25750Y75750D02*
D03*
X29500Y70000D02*
D03*
X53000Y84500D02*
D03*
X10500Y73500D02*
D03*
X8918Y68918D02*
D03*
X10184Y115184D02*
D03*
X21500Y96000D02*
D03*
X29500Y104000D02*
D03*
X21500Y103500D02*
D03*
X46500Y-1000D02*
D03*
X43701Y-5315D02*
D03*
X35500Y-3000D02*
D03*
X33500Y19500D02*
D03*
X53500Y-2000D02*
D03*
X53000Y62500D02*
D03*
X8268Y87205D02*
D03*
X49606Y71457D02*
D03*
X45079Y84055D02*
D03*
X49606Y8268D02*
D03*
X8268Y0D02*
D03*
X22047Y-1772D02*
D03*
X16000Y500D02*
D03*
X40157Y11811D02*
D03*
X32874Y159646D02*
D03*
D33*
X15516Y88000D02*
D03*
Y93000D02*
D03*
Y98000D02*
D03*
Y103000D02*
D03*
X45500Y88000D02*
D03*
Y93000D02*
D03*
Y98000D02*
D03*
Y103000D02*
D03*
D34*
X5260Y143268D02*
D03*
X12740D02*
D03*
Y151732D02*
D03*
X9000D02*
D03*
D35*
X5260Y151732D02*
D03*
D36*
X20405Y55020D02*
D03*
X14500D02*
D03*
X20405Y62500D02*
D03*
X14500D02*
D03*
D37*
X5547Y125500D02*
D03*
X11453D02*
D03*
D38*
X30512Y165650D02*
D03*
D39*
X21457Y139075D02*
D03*
X30512D02*
D03*
D40*
X39567D02*
D03*
D41*
X38236Y124016D02*
D03*
X32236D02*
D03*
D42*
X17913Y125047D02*
D03*
Y119047D02*
D03*
M02*
